<?xml version="1.0" encoding="us-ascii" standalone="no"?><svg xmlns="http://www.w3.org/2000/svg" xmlns:xlink="http://www.w3.org/1999/xlink" contentStyleType="text/css" height="1163px" preserveAspectRatio="none" style="width:751px;height:1163px;background:#1B1B1B;" version="1.1" viewBox="0 0 751 1163" width="751px" zoomAndPan="magnify"><defs/><g><rect fill="#1B1B1B" height="1163" style="stroke:none;stroke-width:1.0;" width="751" x="0" y="0"/><!--class Empresa--><g id="elem_Empresa"><rect codeLine="1" fill="#313139" height="113.1875" id="Empresa" rx="2.5" ry="2.5" style="stroke:#E7E7E7;stroke-width:0.5;" width="123" x="143" y="213.48"/><ellipse cx="171.5" cy="229.48" fill="#2E5233" rx="11" ry="11" style="stroke:#E7E7E7;stroke-width:1.0;"/><path d="M175.6094,235.48 L167.8906,235.48 L167.8906,223.0894 L175.6094,223.0894 L175.6094,225.2456 L170.3438,225.2456 L170.3438,227.9175 L175.1094,227.9175 L175.1094,230.0738 L170.3438,230.0738 L170.3438,233.3238 L175.6094,233.3238 L175.6094,235.48 Z " fill="#FFFFFF"/><text fill="#FFFFFF" font-family="sans-serif" font-size="14" lengthAdjust="spacing" textLength="61" x="188.5" y="234.3267">Empresa</text><line style="stroke:#E7E7E7;stroke-width:0.5;" x1="144" x2="265" y1="245.48" y2="245.48"/><ellipse cx="154" cy="259.1284" fill="#000000" rx="3" ry="3" style="stroke:#000000;stroke-width:1.0;"/><text fill="#FFFFFF" font-family="sans-serif" font-size="14" lengthAdjust="spacing" textLength="38" x="163" y="262.4751">id: int</text><line style="stroke:#E7E7E7;stroke-width:1.0;" x1="144" x2="265" y1="269.7769" y2="269.7769"/><text fill="#FFFFFF" font-family="sans-serif" font-size="14" lengthAdjust="spacing" textLength="102" x="149" y="286.772">nombre: string</text><text fill="#FFFFFF" font-family="sans-serif" font-size="14" lengthAdjust="spacing" textLength="111" x="149" y="303.0689">direccion: string</text><text fill="#FFFFFF" font-family="sans-serif" font-size="14" lengthAdjust="spacing" textLength="105" x="149" y="319.3657">telefono: string</text></g><!--class Usuario--><g id="elem_Usuario"><rect codeLine="9" fill="#313139" height="162.0781" id="Usuario" rx="2.5" ry="2.5" style="stroke:#E7E7E7;stroke-width:0.5;" width="186" x="42.5" y="548.75"/><ellipse cx="105.25" cy="564.75" fill="#2E5233" rx="11" ry="11" style="stroke:#E7E7E7;stroke-width:1.0;"/><path d="M109.3594,570.75 L101.6406,570.75 L101.6406,558.3594 L109.3594,558.3594 L109.3594,560.5156 L104.0938,560.5156 L104.0938,563.1875 L108.8594,563.1875 L108.8594,565.3438 L104.0938,565.3438 L104.0938,568.5938 L109.3594,568.5938 L109.3594,570.75 Z " fill="#FFFFFF"/><text fill="#FFFFFF" font-family="sans-serif" font-size="14" lengthAdjust="spacing" textLength="52" x="125.75" y="569.5967">Usuario</text><line style="stroke:#E7E7E7;stroke-width:0.5;" x1="43.5" x2="227.5" y1="580.75" y2="580.75"/><ellipse cx="53.5" cy="594.3984" fill="#000000" rx="3" ry="3" style="stroke:#000000;stroke-width:1.0;"/><text fill="#FFFFFF" font-family="sans-serif" font-size="14" lengthAdjust="spacing" textLength="38" x="62.5" y="597.7451">id: int</text><line style="stroke:#E7E7E7;stroke-width:1.0;" x1="43.5" x2="227.5" y1="605.0469" y2="605.0469"/><text fill="#FFFFFF" font-family="sans-serif" font-size="14" lengthAdjust="spacing" textLength="102" x="48.5" y="622.042">nombre: string</text><text fill="#FFFFFF" font-family="sans-serif" font-size="14" lengthAdjust="spacing" textLength="84" x="48.5" y="638.3389">email: string</text><text fill="#FFFFFF" font-family="sans-serif" font-size="14" lengthAdjust="spacing" textLength="174" x="48.5" y="654.6357">hashed_password: string</text><text fill="#FFFFFF" font-family="sans-serif" font-size="14" lengthAdjust="spacing" textLength="62" x="48.5" y="670.9326">id_rol: int</text><text fill="#FFFFFF" font-family="sans-serif" font-size="14" lengthAdjust="spacing" textLength="106" x="48.5" y="687.2295">id_empresa: int</text><text fill="#FFFFFF" font-family="sans-serif" font-size="14" lengthAdjust="spacing" textLength="78" x="48.5" y="703.5264">id_perfil: int</text></g><!--class Candidato--><g id="elem_Candidato"><rect codeLine="20" fill="#313139" height="162.0781" id="Candidato" rx="2.5" ry="2.5" style="stroke:#E7E7E7;stroke-width:0.5;" width="165" x="425" y="356.67"/><ellipse cx="468.35" cy="372.67" fill="#2E5233" rx="11" ry="11" style="stroke:#E7E7E7;stroke-width:1.0;"/><path d="M472.4594,378.67 L464.7406,378.67 L464.7406,366.2794 L472.4594,366.2794 L472.4594,368.4356 L467.1938,368.4356 L467.1938,371.1075 L471.9594,371.1075 L471.9594,373.2638 L467.1938,373.2638 L467.1938,376.5138 L472.4594,376.5138 L472.4594,378.67 Z " fill="#FFFFFF"/><text fill="#FFFFFF" font-family="sans-serif" font-size="14" lengthAdjust="spacing" textLength="70" x="488.65" y="377.5167">Candidato</text><line style="stroke:#E7E7E7;stroke-width:0.5;" x1="426" x2="589" y1="388.67" y2="388.67"/><ellipse cx="436" cy="402.3184" fill="#000000" rx="3" ry="3" style="stroke:#000000;stroke-width:1.0;"/><text fill="#FFFFFF" font-family="sans-serif" font-size="14" lengthAdjust="spacing" textLength="38" x="445" y="405.6651">id: int</text><line style="stroke:#E7E7E7;stroke-width:1.0;" x1="426" x2="589" y1="412.9669" y2="412.9669"/><text fill="#FFFFFF" font-family="sans-serif" font-size="14" lengthAdjust="spacing" textLength="102" x="431" y="429.962">nombre: string</text><text fill="#FFFFFF" font-family="sans-serif" font-size="14" lengthAdjust="spacing" textLength="101" x="431" y="446.2589">apellido: string</text><text fill="#FFFFFF" font-family="sans-serif" font-size="14" lengthAdjust="spacing" textLength="84" x="431" y="462.5557">email: string</text><text fill="#FFFFFF" font-family="sans-serif" font-size="14" lengthAdjust="spacing" textLength="105" x="431" y="478.8526">telefono: string</text><text fill="#FFFFFF" font-family="sans-serif" font-size="14" lengthAdjust="spacing" textLength="153" x="431" y="495.1495">fecha_aplicacion: date</text><text fill="#FFFFFF" font-family="sans-serif" font-size="14" lengthAdjust="spacing" textLength="78" x="431" y="511.4464">id_perfil: int</text></g><!--class Perfil--><g id="elem_Perfil"><rect codeLine="31" fill="#313139" height="129.4844" id="Perfil" rx="2.5" ry="2.5" style="stroke:#E7E7E7;stroke-width:0.5;" width="126" x="272.5" y="7"/><ellipse cx="314.95" cy="23" fill="#2E5233" rx="11" ry="11" style="stroke:#E7E7E7;stroke-width:1.0;"/><path d="M319.0594,29 L311.3406,29 L311.3406,16.6094 L319.0594,16.6094 L319.0594,18.7656 L313.7938,18.7656 L313.7938,21.4375 L318.5594,21.4375 L318.5594,23.5938 L313.7938,23.5938 L313.7938,26.8438 L319.0594,26.8438 L319.0594,29 Z " fill="#FFFFFF"/><text fill="#FFFFFF" font-family="sans-serif" font-size="14" lengthAdjust="spacing" textLength="33" x="335.05" y="27.8467">Perfil</text><line style="stroke:#E7E7E7;stroke-width:0.5;" x1="273.5" x2="397.5" y1="39" y2="39"/><ellipse cx="283.5" cy="52.6484" fill="#000000" rx="3" ry="3" style="stroke:#000000;stroke-width:1.0;"/><text fill="#FFFFFF" font-family="sans-serif" font-size="14" lengthAdjust="spacing" textLength="38" x="292.5" y="55.9951">id: int</text><line style="stroke:#E7E7E7;stroke-width:1.0;" x1="273.5" x2="397.5" y1="63.2969" y2="63.2969"/><text fill="#FFFFFF" font-family="sans-serif" font-size="14" lengthAdjust="spacing" textLength="56" x="278.5" y="80.292">bio: text</text><text fill="#FFFFFF" font-family="sans-serif" font-size="14" lengthAdjust="spacing" textLength="75" x="278.5" y="96.5889">foto: string</text><text fill="#FFFFFF" font-family="sans-serif" font-size="14" lengthAdjust="spacing" textLength="113" x="278.5" y="112.8857">habilidades: text</text><text fill="#FFFFFF" font-family="sans-serif" font-size="14" lengthAdjust="spacing" textLength="114" x="278.5" y="129.1826">experiencia: text</text></g><!--class Rol--><g id="elem_Rol"><rect codeLine="40" fill="#313139" height="96.8906" id="Rol" rx="2.5" ry="2.5" style="stroke:#E7E7E7;stroke-width:0.5;" width="124" x="12.5" y="812.27"/><ellipse cx="59.25" cy="828.27" fill="#2E5233" rx="11" ry="11" style="stroke:#E7E7E7;stroke-width:1.0;"/><path d="M63.3594,834.27 L55.6406,834.27 L55.6406,821.8794 L63.3594,821.8794 L63.3594,824.0356 L58.0938,824.0356 L58.0938,826.7075 L62.8594,826.7075 L62.8594,828.8638 L58.0938,828.8638 L58.0938,832.1138 L63.3594,832.1138 L63.3594,834.27 Z " fill="#FFFFFF"/><text fill="#FFFFFF" font-family="sans-serif" font-size="14" lengthAdjust="spacing" textLength="22" x="79.75" y="833.1167">Rol</text><line style="stroke:#E7E7E7;stroke-width:0.5;" x1="13.5" x2="135.5" y1="844.27" y2="844.27"/><ellipse cx="23.5" cy="857.9184" fill="#000000" rx="3" ry="3" style="stroke:#000000;stroke-width:1.0;"/><text fill="#FFFFFF" font-family="sans-serif" font-size="14" lengthAdjust="spacing" textLength="38" x="32.5" y="861.2651">id: int</text><line style="stroke:#E7E7E7;stroke-width:1.0;" x1="13.5" x2="135.5" y1="868.5669" y2="868.5669"/><text fill="#FFFFFF" font-family="sans-serif" font-size="14" lengthAdjust="spacing" textLength="102" x="18.5" y="885.562">nombre: string</text><text fill="#FFFFFF" font-family="sans-serif" font-size="14" lengthAdjust="spacing" textLength="112" x="18.5" y="901.8589">permisos: string</text></g><!--class Permiso--><g id="elem_Permiso"><rect codeLine="47" fill="#313139" height="80.5938" id="Permiso" rx="2.5" ry="2.5" style="stroke:#E7E7E7;stroke-width:0.5;" width="127" x="7" y="1043.2"/><ellipse cx="39.55" cy="1059.2" fill="#2E5233" rx="11" ry="11" style="stroke:#E7E7E7;stroke-width:1.0;"/><path d="M43.6594,1065.2 L35.9406,1065.2 L35.9406,1052.8094 L43.6594,1052.8094 L43.6594,1054.9656 L38.3938,1054.9656 L38.3938,1057.6375 L43.1594,1057.6375 L43.1594,1059.7938 L38.3938,1059.7938 L38.3938,1063.0438 L43.6594,1063.0438 L43.6594,1065.2 Z " fill="#FFFFFF"/><text fill="#FFFFFF" font-family="sans-serif" font-size="14" lengthAdjust="spacing" textLength="56" x="57.45" y="1064.0467">Permiso</text><line style="stroke:#E7E7E7;stroke-width:0.5;" x1="8" x2="133" y1="1075.2" y2="1075.2"/><ellipse cx="18" cy="1088.8484" fill="#000000" rx="3" ry="3" style="stroke:#000000;stroke-width:1.0;"/><text fill="#FFFFFF" font-family="sans-serif" font-size="14" lengthAdjust="spacing" textLength="38" x="27" y="1092.1951">id: int</text><line style="stroke:#E7E7E7;stroke-width:1.0;" x1="8" x2="133" y1="1099.4969" y2="1099.4969"/><text fill="#FFFFFF" font-family="sans-serif" font-size="14" lengthAdjust="spacing" textLength="115" x="13" y="1116.492">descripcion: text</text></g><!--class Oferta--><g id="elem_Oferta"><rect codeLine="53" fill="#313139" height="162.0781" id="Oferta" rx="2.5" ry="2.5" style="stroke:#E7E7E7;stroke-width:0.5;" width="175" x="264" y="548.75"/><ellipse cx="289.35" cy="564.75" fill="#2E5233" rx="11" ry="11" style="stroke:#E7E7E7;stroke-width:1.0;"/><path d="M293.4594,570.75 L285.7406,570.75 L285.7406,558.3594 L293.4594,558.3594 L293.4594,560.5156 L288.1938,560.5156 L288.1938,563.1875 L292.9594,563.1875 L292.9594,565.3438 L288.1938,565.3438 L288.1938,568.5938 L293.4594,568.5938 L293.4594,570.75 Z " fill="#FFFFFF"/><text fill="#FFFFFF" font-family="sans-serif" font-size="14" lengthAdjust="spacing" textLength="120" x="305.65" y="569.5967">Oferta de Empleo</text><line style="stroke:#E7E7E7;stroke-width:0.5;" x1="265" x2="438" y1="580.75" y2="580.75"/><ellipse cx="275" cy="594.3984" fill="#000000" rx="3" ry="3" style="stroke:#000000;stroke-width:1.0;"/><text fill="#FFFFFF" font-family="sans-serif" font-size="14" lengthAdjust="spacing" textLength="38" x="284" y="597.7451">id: int</text><line style="stroke:#E7E7E7;stroke-width:1.0;" x1="265" x2="438" y1="605.0469" y2="605.0469"/><text fill="#FFFFFF" font-family="sans-serif" font-size="14" lengthAdjust="spacing" textLength="82" x="270" y="622.042">titulo: string</text><text fill="#FFFFFF" font-family="sans-serif" font-size="14" lengthAdjust="spacing" textLength="115" x="270" y="638.3389">descripcion: text</text><text fill="#FFFFFF" font-family="sans-serif" font-size="14" lengthAdjust="spacing" textLength="163" x="270" y="654.6357">fecha_publicacion: date</text><text fill="#FFFFFF" font-family="sans-serif" font-size="14" lengthAdjust="spacing" textLength="124" x="270" y="670.9326">fecha_cierre: date</text><text fill="#FFFFFF" font-family="sans-serif" font-size="14" lengthAdjust="spacing" textLength="96" x="270" y="687.2295">estado: string</text><text fill="#FFFFFF" font-family="sans-serif" font-size="14" lengthAdjust="spacing" textLength="106" x="270" y="703.5264">id_empresa: int</text></g><!--class Solicitud--><g id="elem_Solicitud"><rect codeLine="64" fill="#313139" height="145.7813" id="Solicitud" rx="2.5" ry="2.5" style="stroke:#E7E7E7;stroke-width:0.5;" width="154" x="384.5" y="787.83"/><ellipse cx="428.3" cy="803.83" fill="#2E5233" rx="11" ry="11" style="stroke:#E7E7E7;stroke-width:1.0;"/><path d="M432.4094,809.83 L424.6906,809.83 L424.6906,797.4394 L432.4094,797.4394 L432.4094,799.5956 L427.1438,799.5956 L427.1438,802.2675 L431.9094,802.2675 L431.9094,804.4238 L427.1438,804.4238 L427.1438,807.6738 L432.4094,807.6738 L432.4094,809.83 Z " fill="#FFFFFF"/><text fill="#FFFFFF" font-family="sans-serif" font-size="14" lengthAdjust="spacing" textLength="58" x="448.7" y="808.6767">Solicitud</text><line style="stroke:#E7E7E7;stroke-width:0.5;" x1="385.5" x2="537.5" y1="819.83" y2="819.83"/><ellipse cx="395.5" cy="833.4784" fill="#000000" rx="3" ry="3" style="stroke:#000000;stroke-width:1.0;"/><text fill="#FFFFFF" font-family="sans-serif" font-size="14" lengthAdjust="spacing" textLength="38" x="404.5" y="836.8251">id: int</text><line style="stroke:#E7E7E7;stroke-width:1.0;" x1="385.5" x2="537.5" y1="844.1269" y2="844.1269"/><text fill="#FFFFFF" font-family="sans-serif" font-size="14" lengthAdjust="spacing" textLength="85" x="390.5" y="861.122">id_oferta: int</text><text fill="#FFFFFF" font-family="sans-serif" font-size="14" lengthAdjust="spacing" textLength="113" x="390.5" y="877.4189">id_candidato: int</text><text fill="#FFFFFF" font-family="sans-serif" font-size="14" lengthAdjust="spacing" textLength="96" x="390.5" y="893.7157">estado: string</text><text fill="#FFFFFF" font-family="sans-serif" font-size="14" lengthAdjust="spacing" textLength="142" x="390.5" y="910.0126">fecha_solicitud: date</text><text fill="#FFFFFF" font-family="sans-serif" font-size="14" lengthAdjust="spacing" textLength="113" x="390.5" y="926.3095">comentario: text</text></g><!--class Entrevista--><g id="elem_Entrevista"><rect codeLine="74" fill="#313139" height="145.7813" id="Entrevista" rx="2.5" ry="2.5" style="stroke:#E7E7E7;stroke-width:0.5;" width="195" x="169" y="1010.61"/><ellipse cx="228.25" cy="1026.61" fill="#2E5233" rx="11" ry="11" style="stroke:#E7E7E7;stroke-width:1.0;"/><path d="M232.3594,1032.61 L224.6406,1032.61 L224.6406,1020.2194 L232.3594,1020.2194 L232.3594,1022.3756 L227.0938,1022.3756 L227.0938,1025.0475 L231.8594,1025.0475 L231.8594,1027.2038 L227.0938,1027.2038 L227.0938,1030.4538 L232.3594,1030.4538 L232.3594,1032.61 Z " fill="#FFFFFF"/><text fill="#FFFFFF" font-family="sans-serif" font-size="14" lengthAdjust="spacing" textLength="68" x="248.75" y="1031.4567">Entrevista</text><line style="stroke:#E7E7E7;stroke-width:0.5;" x1="170" x2="363" y1="1042.61" y2="1042.61"/><ellipse cx="180" cy="1056.2584" fill="#000000" rx="3" ry="3" style="stroke:#000000;stroke-width:1.0;"/><text fill="#FFFFFF" font-family="sans-serif" font-size="14" lengthAdjust="spacing" textLength="38" x="189" y="1059.6051">id: int</text><line style="stroke:#E7E7E7;stroke-width:1.0;" x1="170" x2="363" y1="1066.9069" y2="1066.9069"/><text fill="#FFFFFF" font-family="sans-serif" font-size="14" lengthAdjust="spacing" textLength="102" x="175" y="1083.902">id_solicitud: int</text><text fill="#FFFFFF" font-family="sans-serif" font-size="14" lengthAdjust="spacing" textLength="183" x="175" y="1100.1989">fecha_entrevista: datetime</text><text fill="#FFFFFF" font-family="sans-serif" font-size="14" lengthAdjust="spacing" textLength="86" x="175" y="1116.4957">duracion: int</text><text fill="#FFFFFF" font-family="sans-serif" font-size="14" lengthAdjust="spacing" textLength="74" x="175" y="1132.7926">tipo: string</text><text fill="#FFFFFF" font-family="sans-serif" font-size="14" lengthAdjust="spacing" textLength="113" x="175" y="1149.0895">comentario: text</text></g><!--class Evaluacion--><g id="elem_Evaluacion"><rect codeLine="84" fill="#313139" height="113.1875" id="Evaluacion" rx="2.5" ry="2.5" style="stroke:#E7E7E7;stroke-width:0.5;" width="125" x="399" y="1026.91"/><ellipse cx="423" cy="1042.91" fill="#2E5233" rx="11" ry="11" style="stroke:#E7E7E7;stroke-width:1.0;"/><path d="M427.1094,1048.91 L419.3906,1048.91 L419.3906,1036.5194 L427.1094,1036.5194 L427.1094,1038.6756 L421.8438,1038.6756 L421.8438,1041.3475 L426.6094,1041.3475 L426.6094,1043.5038 L421.8438,1043.5038 L421.8438,1046.7538 L427.1094,1046.7538 L427.1094,1048.91 Z " fill="#FFFFFF"/><text fill="#FFFFFF" font-family="sans-serif" font-size="14" lengthAdjust="spacing" textLength="73" x="439" y="1047.7567">Evaluaci&#243;n</text><line style="stroke:#E7E7E7;stroke-width:0.5;" x1="400" x2="523" y1="1058.91" y2="1058.91"/><ellipse cx="410" cy="1072.5584" fill="#000000" rx="3" ry="3" style="stroke:#000000;stroke-width:1.0;"/><text fill="#FFFFFF" font-family="sans-serif" font-size="14" lengthAdjust="spacing" textLength="38" x="419" y="1075.9051">id: int</text><line style="stroke:#E7E7E7;stroke-width:1.0;" x1="400" x2="523" y1="1083.2069" y2="1083.2069"/><text fill="#FFFFFF" font-family="sans-serif" font-size="14" lengthAdjust="spacing" textLength="102" x="405" y="1100.202">id_solicitud: int</text><text fill="#FFFFFF" font-family="sans-serif" font-size="14" lengthAdjust="spacing" textLength="113" x="405" y="1116.4989">resultado: string</text><text fill="#FFFFFF" font-family="sans-serif" font-size="14" lengthAdjust="spacing" textLength="113" x="405" y="1132.7957">comentario: text</text></g><!--class Reporte--><g id="elem_Reporte"><rect codeLine="92" fill="#313139" height="113.1875" id="Reporte" rx="2.5" ry="2.5" style="stroke:#E7E7E7;stroke-width:0.5;" width="186" x="558.5" y="1026.91"/><ellipse cx="619.25" cy="1042.91" fill="#2E5233" rx="11" ry="11" style="stroke:#E7E7E7;stroke-width:1.0;"/><path d="M623.3594,1048.91 L615.6406,1048.91 L615.6406,1036.5194 L623.3594,1036.5194 L623.3594,1038.6756 L618.0938,1038.6756 L618.0938,1041.3475 L622.8594,1041.3475 L622.8594,1043.5038 L618.0938,1043.5038 L618.0938,1046.7538 L623.3594,1046.7538 L623.3594,1048.91 Z " fill="#FFFFFF"/><text fill="#FFFFFF" font-family="sans-serif" font-size="14" lengthAdjust="spacing" textLength="56" x="639.75" y="1047.7567">Reporte</text><line style="stroke:#E7E7E7;stroke-width:0.5;" x1="559.5" x2="743.5" y1="1058.91" y2="1058.91"/><ellipse cx="569.5" cy="1072.5584" fill="#000000" rx="3" ry="3" style="stroke:#000000;stroke-width:1.0;"/><text fill="#FFFFFF" font-family="sans-serif" font-size="14" lengthAdjust="spacing" textLength="38" x="578.5" y="1075.9051">id: int</text><line style="stroke:#E7E7E7;stroke-width:1.0;" x1="559.5" x2="743.5" y1="1083.2069" y2="1083.2069"/><text fill="#FFFFFF" font-family="sans-serif" font-size="14" lengthAdjust="spacing" textLength="102" x="564.5" y="1100.202">nombre: string</text><text fill="#FFFFFF" font-family="sans-serif" font-size="14" lengthAdjust="spacing" textLength="115" x="564.5" y="1116.4989">descripcion: text</text><text fill="#FFFFFF" font-family="sans-serif" font-size="14" lengthAdjust="spacing" textLength="174" x="564.5" y="1132.7957">fecha_creacion: datetime</text></g><!--reverse link Perfil to Usuario--><g id="link_Perfil_Usuario"><path codeLine="100" d="M333.8132,148.7466 C330.9532,268.3766 324.08,503.27 313.5,518.75 C295.09,545.69 274.77,532.46 246.5,548.75 C240.63,552.13 234.7,555.75 228.78,559.52 " fill="none" id="Perfil-backto-Usuario" style="stroke:#E7E7E7;stroke-width:1.0;"/><polygon fill="none" points="334.1,136.75,329.9577,142.6527,333.8132,148.7466,337.9555,142.8439,334.1,136.75" style="stroke:#E7E7E7;stroke-width:1.0;"/><text fill="#FFFFFF" font-family="sans-serif" font-size="13" lengthAdjust="spacing" textLength="101" x="332.5" y="274.6469">relacionado con</text><text fill="#FFFFFF" font-family="sans-serif" font-size="13" lengthAdjust="spacing" textLength="8" x="325.5094" y="156.7547">1</text><text fill="#FFFFFF" font-family="sans-serif" font-size="13" lengthAdjust="spacing" textLength="8" x="236.532" y="550.395">1</text></g><!--reverse link Perfil to Candidato--><g id="link_Perfil_Candidato"><path codeLine="101" d="M402.3393,145.9271 C421.0693,168.8171 432.83,186.4 446.5,213.48 C469.12,258.32 484.2,312.59 493.7,356.4 " fill="none" id="Perfil-backto-Candidato" style="stroke:#E7E7E7;stroke-width:1.0;"/><polygon fill="none" points="394.74,136.64,395.4439,143.8167,402.3393,145.9271,401.6354,138.7505,394.74,136.64" style="stroke:#E7E7E7;stroke-width:1.0;"/><text fill="#FFFFFF" font-family="sans-serif" font-size="13" lengthAdjust="spacing" textLength="101" x="429.5" y="179.5469">relacionado con</text><text fill="#FFFFFF" font-family="sans-serif" font-size="13" lengthAdjust="spacing" textLength="8" x="392.7819" y="156.6327">1</text><text fill="#FFFFFF" font-family="sans-serif" font-size="13" lengthAdjust="spacing" textLength="8" x="484.1147" y="345.5633">1</text></g><!--reverse link Perfil to Empresa--><g id="link_Perfil_Empresa"><path codeLine="102" d="M263.6048,132.8253 C250.8248,145.5453 246.93,151.42 237.5,166.48 C228.66,180.6 221.98,197.3 217.03,213.08 " fill="none" id="Perfil-backto-Empresa" style="stroke:#E7E7E7;stroke-width:1.0;"/><polygon fill="none" points="272.11,124.36,265.0356,125.7576,263.6048,132.8253,270.6792,131.4277,272.11,124.36" style="stroke:#E7E7E7;stroke-width:1.0;"/><text fill="#FFFFFF" font-family="sans-serif" font-size="13" lengthAdjust="spacing" textLength="70" x="238.5" y="179.5469">representa</text><text fill="#FFFFFF" font-family="sans-serif" font-size="13" lengthAdjust="spacing" textLength="8" x="256.318" y="126.6513">1</text><text fill="#FFFFFF" font-family="sans-serif" font-size="13" lengthAdjust="spacing" textLength="8" x="210.0696" y="202.2948">1</text></g><!--reverse link Usuario to Rol--><g id="link_Usuario_Rol"><path codeLine="104" d="M110.9898,722.7753 C102.0298,756.3953 95.01,782.75 87.25,811.87 " fill="none" id="Usuario-backto-Rol" style="stroke:#E7E7E7;stroke-width:1.0;"/><polygon fill="none" points="114.08,711.18,108.6698,715.9476,110.9898,722.7753,116.4,718.0077,114.08,711.18" style="stroke:#E7E7E7;stroke-width:1.0;"/><text fill="#FFFFFF" font-family="sans-serif" font-size="13" lengthAdjust="spacing" textLength="32" x="106.5" y="753.8969">tiene</text><text fill="#FFFFFF" font-family="sans-serif" font-size="13" lengthAdjust="spacing" textLength="8" x="103.8955" y="730.8917">1</text><text fill="#FFFFFF" font-family="sans-serif" font-size="13" lengthAdjust="spacing" textLength="8" x="80.4258" y="801.3744">1</text></g><!--reverse link Rol to Permiso--><g id="link_Rol_Permiso"><path codeLine="105" d="M73.4131,921.618 C72.6931,961.448 71.9,1005.45 71.22,1042.8 " fill="none" id="Rol-backto-Permiso" style="stroke:#E7E7E7;stroke-width:1.0;"/><polygon fill="none" points="73.63,909.62,69.5222,915.5467,73.4131,921.618,77.5209,915.6913,73.63,909.62" style="stroke:#E7E7E7;stroke-width:1.0;"/><text fill="#FFFFFF" font-family="sans-serif" font-size="13" lengthAdjust="spacing" textLength="44" x="74.5" y="976.6769">incluye</text><text fill="#FFFFFF" font-family="sans-serif" font-size="13" lengthAdjust="spacing" textLength="8" x="64.9756" y="929.2752">1</text><text fill="#FFFFFF" font-family="sans-serif" font-size="13" lengthAdjust="spacing" textLength="10" x="60.5379" y="1032.1961">N</text></g><!--reverse link Empresa to Usuario--><g id="link_Empresa_Usuario"><path codeLine="106" d="M174.0562,338.1123 C170.2562,347.8723 171.11,346.85 168.5,356.67 C151.72,419.92 143.44,493.72 139.38,548.5 " fill="none" id="Empresa-backto-Usuario" style="stroke:#E7E7E7;stroke-width:1.0;"/><polygon fill="none" points="178.41,326.93,172.5057,331.0699,174.0562,338.1123,179.9606,333.9724,178.41,326.93" style="stroke:#E7E7E7;stroke-width:1.0;"/><text fill="#FFFFFF" font-family="sans-serif" font-size="13" lengthAdjust="spacing" textLength="48" x="169.5" y="442.2769">emplea</text><text fill="#FFFFFF" font-family="sans-serif" font-size="13" lengthAdjust="spacing" textLength="8" x="166.7428" y="346.8484">1</text><text fill="#FFFFFF" font-family="sans-serif" font-size="13" lengthAdjust="spacing" textLength="10" x="129.2803" y="537.665">N</text></g><!--reverse link Empresa to Oferta--><g id="link_Empresa_Oferta"><path codeLine="107" d="M232.0318,338.0691 C256.4618,397.5091 290.75,480.97 318.46,548.4 " fill="none" id="Empresa-backto-Oferta" style="stroke:#E7E7E7;stroke-width:1.0;"/><polygon fill="none" points="227.47,326.97,226.0512,334.0401,232.0318,338.0691,233.4506,330.999,227.47,326.97" style="stroke:#E7E7E7;stroke-width:1.0;"/><text fill="#FFFFFF" font-family="sans-serif" font-size="13" lengthAdjust="spacing" textLength="45" x="304.5" y="442.2769">publica</text><text fill="#FFFFFF" font-family="sans-serif" font-size="13" lengthAdjust="spacing" textLength="8" x="221.782" y="346.8933">1</text><text fill="#FFFFFF" font-family="sans-serif" font-size="13" lengthAdjust="spacing" textLength="10" x="305.0721" y="537.5561">N</text></g><!--reverse link Oferta to Solicitud--><g id="link_Oferta_Solicitud"><path codeLine="108" d="M397.923,727.4056 C409.863,752.2656 415.16,763.27 426.82,787.54 " fill="none" id="Oferta-backto-Solicitud" style="stroke:#E7E7E7;stroke-width:1.0;"/><polygon fill="none" points="390.13,711.18,392.5145,730.0032,403.3315,724.8079,390.13,711.18" style="stroke:#E7E7E7;stroke-width:1.0;"/><text fill="#FFFFFF" font-family="sans-serif" font-size="13" lengthAdjust="spacing" textLength="32" x="410.5" y="753.8969">tiene</text><text fill="#FFFFFF" font-family="sans-serif" font-size="13" lengthAdjust="spacing" textLength="8" x="385.106" y="730.8917">1</text><text fill="#FFFFFF" font-family="sans-serif" font-size="13" lengthAdjust="spacing" textLength="10" x="412.914" y="776.6714">N</text></g><!--reverse link Candidato to Solicitud--><g id="link_Candidato_Solicitud"><path codeLine="109" d="M497.4369,530.819 C488.9669,608.359 477.55,712.86 469.38,787.56 " fill="none" id="Candidato-backto-Solicitud" style="stroke:#E7E7E7;stroke-width:1.0;"/><polygon fill="none" points="498.74,518.89,494.1121,524.4202,497.4369,530.819,502.0648,525.2889,498.74,518.89" style="stroke:#E7E7E7;stroke-width:1.0;"/><text fill="#FFFFFF" font-family="sans-serif" font-size="13" lengthAdjust="spacing" textLength="37" x="495.5" y="634.3569">aplica</text><text fill="#FFFFFF" font-family="sans-serif" font-size="13" lengthAdjust="spacing" textLength="8" x="489.6036" y="538.861">1</text><text fill="#FFFFFF" font-family="sans-serif" font-size="13" lengthAdjust="spacing" textLength="10" x="459.6635" y="776.6934">N</text></g><!--reverse link Solicitud to Entrevista--><g id="link_Solicitud_Entrevista"><path codeLine="110" d="M389.7054,943.0036 C368.0454,967.5236 351.81,985.92 330.16,1010.42 " fill="none" id="Solicitud-backto-Entrevista" style="stroke:#E7E7E7;stroke-width:1.0;"/><polygon fill="none" points="397.65,934.01,390.6799,935.8586,389.7054,943.0036,396.6756,941.155,397.65,934.01" style="stroke:#E7E7E7;stroke-width:1.0;"/><text fill="#FFFFFF" font-family="sans-serif" font-size="13" lengthAdjust="spacing" textLength="32" x="370.5" y="976.6769">tiene</text><text fill="#FFFFFF" font-family="sans-serif" font-size="13" lengthAdjust="spacing" textLength="8" x="383.183" y="953.7835">1</text><text fill="#FFFFFF" font-family="sans-serif" font-size="13" lengthAdjust="spacing" textLength="8" x="328.0328" y="999.5613">1</text></g><!--reverse link Solicitud to Evaluacion--><g id="link_Solicitud_Evaluacion"><path codeLine="111" d="M461.5,946.01 C461.5,976.07 461.5,998.42 461.5,1026.51 " fill="none" id="Solicitud-backto-Evaluacion" style="stroke:#E7E7E7;stroke-width:1.0;"/><polygon fill="none" points="461.5,934.01,457.5,940.01,461.5,946.01,465.5,940.01,461.5,934.01" style="stroke:#E7E7E7;stroke-width:1.0;"/><text fill="#FFFFFF" font-family="sans-serif" font-size="13" lengthAdjust="spacing" textLength="32" x="462.5" y="976.6769">tiene</text><text fill="#FFFFFF" font-family="sans-serif" font-size="13" lengthAdjust="spacing" textLength="8" x="453.1188" y="953.7835">1</text><text fill="#FFFFFF" font-family="sans-serif" font-size="13" lengthAdjust="spacing" textLength="8" x="453.0125" y="1015.7248">1</text></g><!--reverse link Solicitud to Reporte--><g id="link_Solicitud_Reporte"><path codeLine="112" d="M531.5377,943.1055 C557.4077,973.1655 579.14,998.42 603.31,1026.51 " fill="none" id="Solicitud-backto-Reporte" style="stroke:#E7E7E7;stroke-width:1.0;"/><polygon fill="none" points="523.71,934.01,524.592,941.167,531.5377,943.1055,530.6557,935.9485,523.71,934.01" style="stroke:#E7E7E7;stroke-width:1.0;"/><text fill="#FFFFFF" font-family="sans-serif" font-size="13" lengthAdjust="spacing" textLength="45" x="562.5" y="976.6769">genera</text><text fill="#FFFFFF" font-family="sans-serif" font-size="13" lengthAdjust="spacing" textLength="8" x="521.2581" y="953.7835">1</text><text fill="#FFFFFF" font-family="sans-serif" font-size="13" lengthAdjust="spacing" textLength="8" x="588.9493" y="1015.7248">1</text></g><!--reverse link Usuario to Entrevista--><g id="link_Usuario_Entrevista"><path codeLine="113" d="M162.1827,722.805 C186.7927,807.655 221.86,928.56 245.53,1010.18 " fill="none" id="Usuario-backto-Entrevista" style="stroke:#E7E7E7;stroke-width:1.0;"/><polygon fill="none" points="158.84,711.28,156.6697,718.1568,162.1827,722.805,164.353,715.9283,158.84,711.28" style="stroke:#E7E7E7;stroke-width:1.0;"/><text fill="#FFFFFF" font-family="sans-serif" font-size="13" lengthAdjust="spacing" textLength="54" x="223.5" y="865.2869">conduce</text><text fill="#FFFFFF" font-family="sans-serif" font-size="13" lengthAdjust="spacing" textLength="8" x="152.502" y="731.0003">1</text><text fill="#FFFFFF" font-family="sans-serif" font-size="13" lengthAdjust="spacing" textLength="10" x="233.0547" y="999.55">N</text></g><!--SRC=[ZLJ1RjmW4BtxAn37Idl8TTLRbMiIfSfvnS8uEn862t2QgErNzHFoOnaCsEpQk_N5PeR7lCSmCs02XW_6xxlUWHUS2S_oclrk6Fl6KEqPca3htOu-ndP71tlcWqFpIWw53gH4QofV00sjDNPo_MqQo4mlVX0ExSYKrnkPe1EeA_ia_0dKeHVU_x9ELJke3ixg4eqiI5UgF3su5ZEaKlT368LAXAHliZOg53reZShU4Br83MCjo9CuY5wZ52cHH0atPJwDxb5ZMguBF2Bn17YFZjO6UvQy8v9KeS1F47WdEWGZKMHVHVbi4n_zDsQ3WdNehL-hWgUqLsuGr-jHIPzqsAUyN6fwRC45GPXOinfIkEnSZKR71bsdOHc-l4S_71SFadOaWeiNpKxmGPmz-MMzLO9_Mef96jIeTBBMnL8SEzwbAbjPAhBu5kn9eo-X9vdITgGYjjioZ_ScE7X32fK6m6HU5LR5Jnk95gQJYJTW5xdLu78Y4pXWNqk-AUrDw84EV_upILkshTckZPvYq1TfkiNv3Brr0LAvf_NMONYrdAI3gfR6l11ZRbv-nvdTxSP_cObxnXteyGmf9xs6hy7d4RNnG9dk8pmkOnfuqnJU6XjxdN21PWBm9bhJxWEV-fOGQAGUFWXJejUuwaOGsrIimtBV4Ygt7c-oAwA-_ycmkMbcPNCIwe1do3HUUJCxpv8oL_mSzGfqBi3_GKlj4EwLO8xe5rb-k2IdTrE31Fu5]--></g></svg>