<?xml version="1.0" encoding="us-ascii" standalone="no"?><svg xmlns="http://www.w3.org/2000/svg" xmlns:xlink="http://www.w3.org/1999/xlink" contentStyleType="text/css" height="947px" preserveAspectRatio="none" style="width:1081px;height:947px;background:#FFFFFF;" version="1.1" viewBox="0 0 1081 947" width="1081px" zoomAndPan="magnify"><defs/><g><!--cluster Presentation Layer--><g id="cluster_Presentation Layer"><path d="M8.5,71 L159.5,71 A3.75,3.75 0 0 1 162,73.5 L169,93.2969 L188.5,93.2969 A2.5,2.5 0 0 1 191,95.7969 L191,327.5 A2.5,2.5 0 0 1 188.5,330 L8.5,330 A2.5,2.5 0 0 1 6,327.5 L6,73.5 A2.5,2.5 0 0 1 8.5,71 " fill="#E3F2FD" style="stroke:#000000;stroke-width:1.5;"/><line style="stroke:#000000;stroke-width:1.5;" x1="6" x2="169" y1="93.2969" y2="93.2969"/><text fill="#000000" font-family="sans-serif" font-size="14" font-weight="bold" lengthAdjust="spacing" textLength="150" x="10" y="85.9951">Presentation Layer</text></g><!--cluster Application Layer--><g id="cluster_Application Layer"><path d="M374.5,6 L511.5,6 A3.75,3.75 0 0 1 514,8.5 L521,28.2969 L587.5,28.2969 A2.5,2.5 0 0 1 590,30.7969 L590,460.5 A2.5,2.5 0 0 1 587.5,463 L374.5,463 A2.5,2.5 0 0 1 372,460.5 L372,8.5 A2.5,2.5 0 0 1 374.5,6 " fill="#FFF176" style="stroke:#000000;stroke-width:1.5;"/><line style="stroke:#000000;stroke-width:1.5;" x1="372" x2="521" y1="28.2969" y2="28.2969"/><text fill="#000000" font-family="sans-serif" font-size="14" font-weight="bold" lengthAdjust="spacing" textLength="136" x="376" y="20.9951">Application Layer</text></g><!--cluster Infrastructure Layer--><g id="cluster_Infrastructure Layer"><path d="M475.14,503 L635.14,503 A3.75,3.75 0 0 1 637.64,505.5 L644.64,525.2969 L1071.5,525.2969 A2.5,2.5 0 0 1 1074,527.7969 L1074,937.5 A2.5,2.5 0 0 1 1071.5,940 L475.14,940 A2.5,2.5 0 0 1 472.64,937.5 L472.64,505.5 A2.5,2.5 0 0 1 475.14,503 " fill="#C8E6C9" style="stroke:#000000;stroke-width:1.5;"/><line style="stroke:#000000;stroke-width:1.5;" x1="472.64" x2="644.64" y1="525.2969" y2="525.2969"/><text fill="#000000" font-family="sans-serif" font-size="14" font-weight="bold" lengthAdjust="spacing" textLength="159" x="476.64" y="517.9951">Infrastructure Layer</text></g><!--entity Web Frontend--><g id="elem_Web Frontend"><rect fill="#F1F1F1" height="46.2969" rx="2.5" ry="2.5" style="stroke:#181818;stroke-width:0.5;" width="138" x="29.5" y="186.85"/><rect fill="#F1F1F1" height="10" style="stroke:#181818;stroke-width:0.5;" width="15" x="147.5" y="191.85"/><rect fill="#F1F1F1" height="2" style="stroke:#181818;stroke-width:0.5;" width="4" x="145.5" y="193.85"/><rect fill="#F1F1F1" height="2" style="stroke:#181818;stroke-width:0.5;" width="4" x="145.5" y="197.85"/><text fill="#000000" font-family="sans-serif" font-size="14" lengthAdjust="spacing" textLength="98" x="44.5" y="219.8451">Web Frontend</text></g><!--entity Recruiter Portal--><g id="elem_Recruiter Portal"><rect fill="#F1F1F1" height="46.2969" rx="2.5" ry="2.5" style="stroke:#181818;stroke-width:0.5;" width="146" x="25.5" y="267.85"/><rect fill="#F1F1F1" height="10" style="stroke:#181818;stroke-width:0.5;" width="15" x="151.5" y="272.85"/><rect fill="#F1F1F1" height="2" style="stroke:#181818;stroke-width:0.5;" width="4" x="149.5" y="274.85"/><rect fill="#F1F1F1" height="2" style="stroke:#181818;stroke-width:0.5;" width="4" x="149.5" y="278.85"/><text fill="#000000" font-family="sans-serif" font-size="14" lengthAdjust="spacing" textLength="106" x="40.5" y="300.8451">Recruiter Portal</text></g><!--entity Candidate Portal--><g id="elem_Candidate Portal"><rect fill="#F1F1F1" height="46.2969" rx="2.5" ry="2.5" style="stroke:#181818;stroke-width:0.5;" width="153" x="22" y="105.85"/><rect fill="#F1F1F1" height="10" style="stroke:#181818;stroke-width:0.5;" width="15" x="155" y="110.85"/><rect fill="#F1F1F1" height="2" style="stroke:#181818;stroke-width:0.5;" width="4" x="153" y="112.85"/><rect fill="#F1F1F1" height="2" style="stroke:#181818;stroke-width:0.5;" width="4" x="153" y="116.85"/><text fill="#000000" font-family="sans-serif" font-size="14" lengthAdjust="spacing" textLength="113" x="37" y="138.8451">Candidate Portal</text></g><!--entity Job Offer Service--><g id="elem_Job Offer Service"><rect fill="#F1F1F1" height="46.2969" rx="2.5" ry="2.5" style="stroke:#181818;stroke-width:0.5;" width="152" x="405" y="230.85"/><rect fill="#F1F1F1" height="10" style="stroke:#181818;stroke-width:0.5;" width="15" x="537" y="235.85"/><rect fill="#F1F1F1" height="2" style="stroke:#181818;stroke-width:0.5;" width="4" x="535" y="237.85"/><rect fill="#F1F1F1" height="2" style="stroke:#181818;stroke-width:0.5;" width="4" x="535" y="241.85"/><text fill="#000000" font-family="sans-serif" font-size="14" lengthAdjust="spacing" textLength="112" x="420" y="263.8451">Job Offer Service</text></g><!--entity Candidate Service--><g id="elem_Candidate Service"><rect fill="#F1F1F1" height="46.2969" rx="2.5" ry="2.5" style="stroke:#181818;stroke-width:0.5;" width="164" x="399" y="311.85"/><rect fill="#F1F1F1" height="10" style="stroke:#181818;stroke-width:0.5;" width="15" x="543" y="316.85"/><rect fill="#F1F1F1" height="2" style="stroke:#181818;stroke-width:0.5;" width="4" x="541" y="318.85"/><rect fill="#F1F1F1" height="2" style="stroke:#181818;stroke-width:0.5;" width="4" x="541" y="322.85"/><text fill="#000000" font-family="sans-serif" font-size="14" lengthAdjust="spacing" textLength="124" x="414" y="344.8451">Candidate Service</text></g><!--entity Interview Service--><g id="elem_Interview Service"><rect fill="#F1F1F1" height="46.2969" rx="2.5" ry="2.5" style="stroke:#181818;stroke-width:0.5;" width="155" x="403.5" y="68.85"/><rect fill="#F1F1F1" height="10" style="stroke:#181818;stroke-width:0.5;" width="15" x="538.5" y="73.85"/><rect fill="#F1F1F1" height="2" style="stroke:#181818;stroke-width:0.5;" width="4" x="536.5" y="75.85"/><rect fill="#F1F1F1" height="2" style="stroke:#181818;stroke-width:0.5;" width="4" x="536.5" y="79.85"/><text fill="#000000" font-family="sans-serif" font-size="14" lengthAdjust="spacing" textLength="115" x="418.5" y="101.8451">Interview Service</text></g><!--entity Reporting Service--><g id="elem_Reporting Service"><rect fill="#F1F1F1" height="46.2969" rx="2.5" ry="2.5" style="stroke:#181818;stroke-width:0.5;" width="162" x="400" y="149.85"/><rect fill="#F1F1F1" height="10" style="stroke:#181818;stroke-width:0.5;" width="15" x="542" y="154.85"/><rect fill="#F1F1F1" height="2" style="stroke:#181818;stroke-width:0.5;" width="4" x="540" y="156.85"/><rect fill="#F1F1F1" height="2" style="stroke:#181818;stroke-width:0.5;" width="4" x="540" y="160.85"/><text fill="#000000" font-family="sans-serif" font-size="14" lengthAdjust="spacing" textLength="122" x="415" y="182.8451">Reporting Service</text></g><!--entity Notification Service--><g id="elem_Notification Service"><rect fill="#F1F1F1" height="46.2969" rx="2.5" ry="2.5" style="stroke:#181818;stroke-width:0.5;" width="170" x="396" y="392.85"/><rect fill="#F1F1F1" height="10" style="stroke:#181818;stroke-width:0.5;" width="15" x="546" y="397.85"/><rect fill="#F1F1F1" height="2" style="stroke:#181818;stroke-width:0.5;" width="4" x="544" y="399.85"/><rect fill="#F1F1F1" height="2" style="stroke:#181818;stroke-width:0.5;" width="4" x="544" y="403.85"/><text fill="#000000" font-family="sans-serif" font-size="14" lengthAdjust="spacing" textLength="130" x="411" y="425.8451">Notification Service</text></g><!--entity Relational Database (PostgreSQL)--><g id="elem_Relational Database (PostgreSQL)"><rect fill="#F1F1F1" height="46.2969" rx="2.5" ry="2.5" style="stroke:#181818;stroke-width:0.5;" width="272" x="778" y="707.85"/><rect fill="#F1F1F1" height="10" style="stroke:#181818;stroke-width:0.5;" width="15" x="1030" y="712.85"/><rect fill="#F1F1F1" height="2" style="stroke:#181818;stroke-width:0.5;" width="4" x="1028" y="714.85"/><rect fill="#F1F1F1" height="2" style="stroke:#181818;stroke-width:0.5;" width="4" x="1028" y="718.85"/><text fill="#000000" font-family="sans-serif" font-size="14" lengthAdjust="spacing" textLength="232" x="793" y="740.8451">Relational Database (PostgreSQL)</text></g><!--entity NoSQL Database (MongoDB)--><g id="elem_NoSQL Database (MongoDB)"><rect fill="#F1F1F1" height="46.2969" rx="2.5" ry="2.5" style="stroke:#181818;stroke-width:0.5;" width="239" x="794.5" y="788.85"/><rect fill="#F1F1F1" height="10" style="stroke:#181818;stroke-width:0.5;" width="15" x="1013.5" y="793.85"/><rect fill="#F1F1F1" height="2" style="stroke:#181818;stroke-width:0.5;" width="4" x="1011.5" y="795.85"/><rect fill="#F1F1F1" height="2" style="stroke:#181818;stroke-width:0.5;" width="4" x="1011.5" y="799.85"/><text fill="#000000" font-family="sans-serif" font-size="14" lengthAdjust="spacing" textLength="199" x="809.5" y="821.8451">NoSQL Database (MongoDB)</text></g><!--entity Event Bus (Kafka, RabbitMQ)--><g id="elem_Event Bus (Kafka, RabbitMQ)"><rect fill="#F1F1F1" height="46.2969" rx="2.5" ry="2.5" style="stroke:#181818;stroke-width:0.5;" width="236" x="796" y="545.85"/><rect fill="#F1F1F1" height="10" style="stroke:#181818;stroke-width:0.5;" width="15" x="1012" y="550.85"/><rect fill="#F1F1F1" height="2" style="stroke:#181818;stroke-width:0.5;" width="4" x="1010" y="552.85"/><rect fill="#F1F1F1" height="2" style="stroke:#181818;stroke-width:0.5;" width="4" x="1010" y="556.85"/><text fill="#000000" font-family="sans-serif" font-size="14" lengthAdjust="spacing" textLength="196" x="811" y="578.8451">Event Bus (Kafka, RabbitMQ)</text></g><!--entity External Services--><g id="elem_External Services"><rect fill="#F1F1F1" height="46.2969" rx="2.5" ry="2.5" style="stroke:#181818;stroke-width:0.5;" width="157" x="835.5" y="626.85"/><rect fill="#F1F1F1" height="10" style="stroke:#181818;stroke-width:0.5;" width="15" x="972.5" y="631.85"/><rect fill="#F1F1F1" height="2" style="stroke:#181818;stroke-width:0.5;" width="4" x="970.5" y="633.85"/><rect fill="#F1F1F1" height="2" style="stroke:#181818;stroke-width:0.5;" width="4" x="970.5" y="637.85"/><text fill="#000000" font-family="sans-serif" font-size="14" lengthAdjust="spacing" textLength="117" x="850.5" y="659.8451">External Services</text></g><!--entity Monitoring and Logging--><g id="elem_Monitoring and Logging"><rect fill="#F1F1F1" height="46.2969" rx="2.5" ry="2.5" style="stroke:#181818;stroke-width:0.5;" width="202" x="813" y="869.85"/><rect fill="#F1F1F1" height="10" style="stroke:#181818;stroke-width:0.5;" width="15" x="995" y="874.85"/><rect fill="#F1F1F1" height="2" style="stroke:#181818;stroke-width:0.5;" width="4" x="993" y="876.85"/><rect fill="#F1F1F1" height="2" style="stroke:#181818;stroke-width:0.5;" width="4" x="993" y="880.85"/><text fill="#000000" font-family="sans-serif" font-size="14" lengthAdjust="spacing" textLength="162" x="828" y="902.8451">Monitoring and Logging</text></g><!--link Web Frontend to Job Offer Service--><g id="link_Web Frontend_Job Offer Service"><path d="M167.77,232.26 C180.68,235.74 194.16,238.87 207,241 C273.24,251.97 343.6601,254.7552 398.7701,255.0752 " fill="none" id="Web Frontend-to-Job Offer Service" style="stroke:#181818;stroke-width:1.0;"/><polygon fill="#181818" points="404.77,255.11,395.7934,251.0578,399.7701,255.081,395.7469,259.0577,404.77,255.11" style="stroke:#181818;stroke-width:1.0;"/><text fill="#000000" font-family="sans-serif" font-size="13" lengthAdjust="spacing" textLength="32" x="261.5" y="237.0669">Uses</text></g><!--link Recruiter Portal to Job Offer Service--><g id="link_Recruiter Portal_Job Offer Service"><path d="M172,302.78 C222.11,308.57 289.93,311.71 348,298 C351.87,297.09 352.32,295.5 356,294 C371.5,287.67 382.6926,283.5415 398.8926,278.1915 " fill="none" id="Recruiter Portal-to-Job Offer Service" style="stroke:#181818;stroke-width:1.0;"/><polygon fill="#181818" points="404.59,276.31,394.7896,275.3341,399.8422,277.8779,397.2983,282.9305,404.59,276.31" style="stroke:#181818;stroke-width:1.0;"/><text fill="#000000" font-family="sans-serif" font-size="13" lengthAdjust="spacing" textLength="58" x="248.5" y="294.0669">Manages</text></g><!--link Recruiter Portal to Candidate Service--><g id="link_Recruiter Portal_Candidate Service"><path d="M148.69,314.57 C166.62,321.98 187.32,329.22 207,333 C270.53,345.21 337.9384,345.2867 392.6184,342.3967 " fill="none" id="Recruiter Portal-to-Candidate Service" style="stroke:#181818;stroke-width:1.0;"/><polygon fill="#181818" points="398.61,342.08,389.4114,338.5606,393.617,342.3439,389.8337,346.5494,398.61,342.08" style="stroke:#181818;stroke-width:1.0;"/><text fill="#000000" font-family="sans-serif" font-size="13" lengthAdjust="spacing" textLength="58" x="248.5" y="329.0669">Manages</text></g><!--link Recruiter Portal to Interview Service--><g id="link_Recruiter Portal_Interview Service"><path d="M171.95,271.45 C182.09,266.16 191.57,259.46 199,251 C208.39,240.31 196.79,229.91 207,220 C253.1,175.23 304.44,235.25 348,188 C365.04,169.51 339.8,151.22 356,132 C368.1,117.64 379.6982,110.2883 397.5382,104.3383 " fill="none" id="Recruiter Portal-to-Interview Service" style="stroke:#181818;stroke-width:1.0;"/><polygon fill="#181818" points="403.23,102.44,393.4268,101.493,398.4868,104.0219,395.9579,109.082,403.23,102.44" style="stroke:#181818;stroke-width:1.0;"/><text fill="#000000" font-family="sans-serif" font-size="13" lengthAdjust="spacing" textLength="66" x="244.5" y="184.0669">Schedules</text></g><!--link Candidate Portal to Job Offer Service--><g id="link_Candidate Portal_Job Offer Service"><path d="M175.32,129.72 C239.27,132.01 324.1,139.56 348,163 C364.38,179.06 341.09,196.56 356,214 C368.49,228.62 380.6525,236.0895 398.9425,242.0195 " fill="none" id="Candidate Portal-to-Job Offer Service" style="stroke:#181818;stroke-width:1.0;"/><polygon fill="#181818" points="404.65,243.87,397.3224,237.2893,399.8937,242.3279,394.8551,244.8993,404.65,243.87" style="stroke:#181818;stroke-width:1.0;"/><text fill="#000000" font-family="sans-serif" font-size="13" lengthAdjust="spacing" textLength="63" x="246" y="128.0669">Applies to</text></g><!--link Candidate Portal to Interview Service--><g id="link_Candidate Portal_Interview Service"><path d="M175.29,111.21 C185.89,109.18 196.69,107.36 207,106 C272.87,97.32 342.3416,94.0899 397.2116,92.8099 " fill="none" id="Candidate Portal-to-Interview Service" style="stroke:#181818;stroke-width:1.0;"/><polygon fill="#181818" points="403.21,92.67,394.1192,88.881,398.2114,92.7866,394.3057,96.8788,403.21,92.67" style="stroke:#181818;stroke-width:1.0;"/><text fill="#000000" font-family="sans-serif" font-size="13" lengthAdjust="spacing" textLength="139" x="208" y="91.0669">Receives Notifications</text></g><!--link Job Offer Service to Relational Database (PostgreSQL)--><g id="link_Job Offer Service_Relational Database (PostgreSQL)"><path d="M557.49,264.79 C575.56,270.72 593.28,279.88 606,294 C617.55,306.83 606.29,316.56 614,332 C654.4,412.86 713.34,401.52 748,485 C765.6,527.38 732.8,655.61 762,691 C767.26,697.38 768.4653,699.4261 775.2153,704.0361 " fill="none" id="Job Offer Service-to-Relational Database (PostgreSQL)" style="stroke:#181818;stroke-width:1.0;"/><polygon fill="#181818" points="780.17,707.42,774.9938,699.041,776.0411,704.6001,770.482,705.6473,780.17,707.42" style="stroke:#181818;stroke-width:1.0;"/><text fill="#000000" font-family="sans-serif" font-size="13" lengthAdjust="spacing" textLength="85" x="638.5" y="328.0669">Stores/Reads</text></g><!--link Candidate Service to Relational Database (PostgreSQL)--><g id="link_Candidate Service_Relational Database (PostgreSQL)"><path d="M563.43,346.14 C579.85,352.14 595.32,361.24 606,375 C623.88,398.04 603.51,478.79 614,506 C651.87,604.25 673.78,633.52 762,691 C771.88,697.44 777.2053,700.6063 788.4653,705.1463 " fill="none" id="Candidate Service-to-Relational Database (PostgreSQL)" style="stroke:#181818;stroke-width:1.0;"/><polygon fill="#181818" points="794.03,707.39,787.1787,700.3147,789.3927,705.5203,784.1872,707.7343,794.03,707.39" style="stroke:#181818;stroke-width:1.0;"/><text fill="#000000" font-family="sans-serif" font-size="13" lengthAdjust="spacing" textLength="85" x="638.5" y="502.0669">Stores/Reads</text></g><!--link Interview Service to Relational Database (PostgreSQL)--><g id="link_Interview Service_Relational Database (PostgreSQL)"><path d="M558.68,107.43 C575.41,113.24 592.21,121.17 606,132 C611.34,136.19 608.6,140.89 614,145 C663.33,182.6 710.09,134.91 748,184 C782.44,228.6 727.02,646.82 762,691 C767.05,697.38 768.0869,699.3517 774.6369,703.9717 " fill="none" id="Interview Service-to-Relational Database (PostgreSQL)" style="stroke:#181818;stroke-width:1.0;"/><polygon fill="#181818" points="779.54,707.43,774.491,698.9738,775.4541,704.5481,769.8799,705.5112,779.54,707.43" style="stroke:#181818;stroke-width:1.0;"/><text fill="#000000" font-family="sans-serif" font-size="13" lengthAdjust="spacing" textLength="85" x="638.5" y="141.0669">Stores/Reads</text></g><!--link Reporting Service to Relational Database (PostgreSQL)--><g id="link_Reporting Service_Relational Database (PostgreSQL)"><path d="M562.38,189.37 C626.16,207.2 710.59,242.81 748,311 C768.32,348.04 735.62,658 762,691 C767.08,697.36 768.1285,699.3237 774.6985,703.9337 " fill="none" id="Reporting Service-to-Relational Database (PostgreSQL)" style="stroke:#181818;stroke-width:1.0;"/><polygon fill="#181818" points="779.61,707.38,774.5402,698.9362,775.5171,704.5081,769.9452,705.4849,779.61,707.38" style="stroke:#181818;stroke-width:1.0;"/><text fill="#000000" font-family="sans-serif" font-size="13" lengthAdjust="spacing" textLength="49" x="656.5" y="205.0669">Queries</text></g><!--link Notification Service to NoSQL Database (MongoDB)--><g id="link_Notification Service_NoSQL Database (MongoDB)"><path d="M542.39,439.5 C566.49,452.14 591.84,470.31 606,495 C617.62,515.25 600.97,685.62 614,705 C653.6,763.91 723.0994,789.5426 788.2694,801.5526 " fill="none" id="Notification Service-to-NoSQL Database (MongoDB)" style="stroke:#181818;stroke-width:1.0;"/><polygon fill="#181818" points="794.17,802.64,786.044,797.0751,789.2528,801.7338,784.5941,804.9426,794.17,802.64" style="stroke:#181818;stroke-width:1.0;"/><text fill="#000000" font-family="sans-serif" font-size="13" lengthAdjust="spacing" textLength="42" x="660" y="701.0669">Stores</text></g><!--link Application Layer to Event Bus (Kafka, RabbitMQ)--><g id="link_Application Layer_Event Bus (Kafka, RabbitMQ)"><path d="M590.0551,43.3328 C590.4916,43.4188 590.9287,43.5056 591.3663,43.593 C593.1168,43.9428 594.8756,44.304 596.6418,44.677 C600.1742,45.423 603.7361,46.2161 607.3194,47.0592 C614.4859,48.7456 621.7378,50.6321 629.01,52.7426 C643.5543,56.9634 658.1793,62.0797 672.3633,68.28 C700.7313,80.6806 727.335,97.4175 748,120 C866.99,250.04 901.3883,467.1412 909.9183,539.5812 " fill="none" id="Application Layer-to-Event Bus (Kafka, RabbitMQ)" style="stroke:#181818;stroke-width:1.0;"/><polygon fill="#181818" points="910.62,545.54,913.5401,536.134,910.0353,540.5743,905.5949,537.0695,910.62,545.54" style="stroke:#181818;stroke-width:1.0;"/><text fill="#000000" font-family="sans-serif" font-size="13" lengthAdjust="spacing" textLength="132" x="615" y="46.0669">Publishes/Consumes</text></g><!--link Infrastructure Layer to Monitoring and Logging--><g id="link_Infrastructure Layer_Monitoring and Logging"><path d="M482.08,893 C486.61,893 680.6,893 806.51,893 " fill="none" id="Infrastructure Layer-to-Monitoring and Logging" style="stroke:#181818;stroke-width:1.0;"/><polygon fill="#181818" points="812.51,893,803.51,889,807.51,893,803.51,897,812.51,893" style="stroke:#181818;stroke-width:1.0;"/><text fill="#000000" font-family="sans-serif" font-size="13" lengthAdjust="spacing" textLength="60" x="651" y="889.0669">Observes</text></g><!--SRC=[fLHDRzD04BtxLupAWLIYGe1KFWv8D8cbGa8JHnM7YiFO7ZkhkhlHxZW18VuxOyTndQmJAl39ExDlvhtvs88o1ZPWLRvaI9MbX9NHGV0SPfOSQSRg31FyIJPOONAFES6Pxpk3P-CtuUjm1By2aE_k6yKGMgEPTFfzQueeiQLYiZ0pbh5ep4FKgKgHgJN_hl9_MgqAbNHImE119TOuickLa3j_fEDT5JPX6BvwUxbZyzd4S9Db4cInXNkvz-tNmblEj3cmHxGIZahd1_QlXbMsez2wQXtNEhFes9O9bvOEAzdd5VR3T-FBuViT-uYAEZ8MC4B661t1O6OSvvOMyybvIq8EdHjJetCpkjgvnsjf6LoL3WPVCBl75n1X72kUpjiRFqHrbQLHu1gx159iR2LRwWKJa-Vot-eJ4DPZ0p7nXaX3KSbmmVuGmCN5nxvEm0UuTIItlVauWPYYbleT1_cDVGB8xxg05icIqhAeODwadY1OpoGvMQwZkDvqGetKMe3TaNA72r4N65Idz1l5Ip5qfodeOrPd_kj0LRgbu-HUHeJfdlJ_ZTIZ-XyZ-Sluz4ZpagogUjgxkTiuH_UfPHBSUKzFWpsrR0AVbN6Xt5Aq3AMxvGFLXV6VWYRQaGMKG3TnzHwI-mC0]--></g></svg>