<?xml version="1.0" encoding="us-ascii" standalone="no"?><svg xmlns="http://www.w3.org/2000/svg" xmlns:xlink="http://www.w3.org/1999/xlink" contentStyleType="text/css" height="1220px" preserveAspectRatio="none" style="width:1901px;height:1220px;background:#DDDDDD;" version="1.1" viewBox="0 0 1901 1220" width="1901px" zoomAndPan="magnify"><defs/><g><rect fill="#DDDDDD" height="1220" style="stroke:none;stroke-width:1.0;" width="1901" x="0" y="0"/><!--cluster Sistema ATS--><g id="cluster_Sistema ATS"><rect fill="none" height="401" rx="3.5" ry="3.5" style="stroke:#454645;stroke-width:1.0;" width="1632.85" x="263.06" y="363.26"/><text fill="#000000" font-family="sans-serif" font-size="14" font-weight="bold" lengthAdjust="spacing" textLength="98" x="1030.485" y="378.2551">Sistema ATS</text></g><g id="elem_UC1"><ellipse cx="390.5035" cy="655.2627" fill="#F1F1F1" rx="86.1635" ry="19.6327" style="stroke:#181818;stroke-width:0.5;"/><text fill="#000000" font-family="sans-serif" font-size="14" lengthAdjust="spacing" textLength="133" x="324.0035" y="658.1094">Gestionar vacantes</text></g><g id="elem_UC2"><ellipse cx="778.2807" cy="523.2621" fill="#F1F1F1" rx="80.6107" ry="18.5221" style="stroke:#181818;stroke-width:0.5;"/><text fill="#000000" font-family="sans-serif" font-size="14" lengthAdjust="spacing" textLength="120" x="716.8426" y="526.5748">Publicar vacantes</text></g><g id="elem_UC3"><ellipse cx="390.5004" cy="500.2601" fill="#F1F1F1" rx="73.4504" ry="17.0901" style="stroke:#181818;stroke-width:0.5;"/><text fill="#000000" font-family="sans-serif" font-size="14" lengthAdjust="spacing" textLength="102" x="336.5004" y="504.0076">Enviar solicitud</text></g><g id="elem_UC4"><ellipse cx="390.495" cy="729.259" fill="#F1F1F1" rx="83.995" ry="19.199" style="stroke:#181818;stroke-width:0.5;"/><text fill="#000000" font-family="sans-serif" font-size="14" lengthAdjust="spacing" textLength="128" x="326.2335" y="732.1956">Revisar solicitudes</text></g><g id="elem_UC5"><ellipse cx="778.2809" cy="713.2562" fill="#F1F1F1" rx="138.2809" ry="30.0562" style="stroke:#181818;stroke-width:0.5;"/><text fill="#000000" font-family="sans-serif" font-size="14" lengthAdjust="spacing" textLength="246" x="655.2809" y="716.1029">Realizar seguimiento de candidatos</text></g><g id="elem_UC6"><ellipse cx="1132.6763" cy="719.2633" fill="#F1F1F1" rx="94.1163" ry="21.2233" style="stroke:#181818;stroke-width:0.5;"/><text fill="#000000" font-family="sans-serif" font-size="14" lengthAdjust="spacing" textLength="151" x="1057.1763" y="722.1099">Programar entrevistas</text></g><g id="elem_UC7"><ellipse cx="1443.2863" cy="721.2553" fill="#F1F1F1" rx="84.4263" ry="19.2853" style="stroke:#181818;stroke-width:0.5;"/><text fill="#000000" font-family="sans-serif" font-size="14" lengthAdjust="spacing" textLength="129" x="1378.665" y="724.1439">Evaluar candidatos</text></g><g id="elem_UC8"><ellipse cx="1769.8457" cy="724.2611" fill="#F1F1F1" rx="110.0557" ry="24.4111" style="stroke:#181818;stroke-width:0.5;"/><text fill="#000000" font-family="sans-serif" font-size="14" lengthAdjust="spacing" textLength="186" x="1676.8457" y="727.1078">Generar ofertas de empleo</text></g><g id="elem_UC9"><ellipse cx="390.5016" cy="576.2563" fill="#F1F1F1" rx="109.1316" ry="24.2263" style="stroke:#181818;stroke-width:0.5;"/><text fill="#000000" font-family="sans-serif" font-size="14" lengthAdjust="spacing" textLength="184" x="298.5016" y="579.103">Generar reportes y an&#225;lisis</text></g><g id="elem_UC10"><ellipse cx="390.5043" cy="423.2589" fill="#F1F1F1" rx="111.4443" ry="24.6889" style="stroke:#181818;stroke-width:0.5;"/><text fill="#000000" font-family="sans-serif" font-size="14" lengthAdjust="spacing" textLength="189" x="296.0043" y="426.1055">Integrar con otros sistemas</text></g><!--entity Candidato--><g id="elem_Candidato"><ellipse cx="104" cy="335.61" fill="#FF6347" rx="8" ry="8" style="stroke:#454645;stroke-width:0.5;"/><path d="M104,343.61 L104,370.61 M91,351.61 L117,351.61 M104,370.61 L91,385.61 M104,370.61 L117,385.61 " fill="none" style="stroke:#454645;stroke-width:0.5;"/><text fill="#454645" font-family="sans-serif" font-size="14" lengthAdjust="spacing" textLength="70" x="69" y="400.1051">Candidato</text></g><!--entity Reclutador--><g id="elem_Reclutador"><ellipse cx="104" cy="841.61" fill="#6495ED" rx="8" ry="8" style="stroke:#454645;stroke-width:0.5;"/><path d="M104,849.61 L104,876.61 M91,857.61 L117,857.61 M104,876.61 L91,891.61 M104,876.61 L117,891.61 " fill="none" style="stroke:#454645;stroke-width:0.5;"/><text fill="#454645" font-family="sans-serif" font-size="14" lengthAdjust="spacing" textLength="75" x="66.5" y="906.1051">Reclutador</text></g><!--entity Administrador--><g id="elem_Administrador"><ellipse cx="104" cy="35.61" fill="#008000" rx="8" ry="8" style="stroke:#454645;stroke-width:0.5;"/><path d="M104,43.61 L104,70.61 M91,51.61 L117,51.61 M104,70.61 L91,85.61 M104,70.61 L117,85.61 " fill="none" style="stroke:#454645;stroke-width:0.5;"/><text fill="#454645" font-family="sans-serif" font-size="14" lengthAdjust="spacing" textLength="95" x="56.5" y="100.1051">Administrador</text></g><g id="elem_GMN30"><path d="M308.5,115.06 L308.5,163.4584 A3.5,3.5 0 0 0 312,166.9584 L469,166.9584 A3.5,3.5 0 0 0 472.5,163.4584 L472.5,121.56 L462.5,111.56 L312,111.56 A3.5,3.5 0 0 0 308.5,115.06 " fill="#90EE90" style="stroke:#454645;stroke-width:1.0;"/><path d="M462.5,111.56 L462.5,119.81 A1.75,1.75 0 0 0 464.25,121.56 L472.5,121.56 L462.5,111.56 " fill="#90EE90" style="stroke:#454645;stroke-width:1.0;"/><text fill="#454645" font-family="sans-serif" font-size="13" lengthAdjust="spacing" textLength="122" x="314.5" y="128.6269">Persona que busca</text><text fill="#454645" font-family="sans-serif" font-size="13" lengthAdjust="spacing" textLength="97" x="314.5" y="143.7597">empleo y env&#237;a</text><text fill="#454645" font-family="sans-serif" font-size="13" lengthAdjust="spacing" textLength="143" x="314.5" y="158.8925">solicitudes de empleo.</text></g><g id="elem_GMN33"><path d="M293,787.06 L293,827.67 L141.9,863.48 L293,835.67 L293,835.4584 A3.5,3.5 0 0 0 296.5,838.9584 L484.5,838.9584 A3.5,3.5 0 0 0 488,835.4584 L488,793.56 L478,783.56 L296.5,783.56 A3.5,3.5 0 0 0 293,787.06 " fill="#90EE90" style="stroke:#454645;stroke-width:1.0;"/><path d="M478,783.56 L478,791.81 A1.75,1.75 0 0 0 479.75,793.56 L488,793.56 L478,783.56 " fill="#90EE90" style="stroke:#454645;stroke-width:1.0;"/><text fill="#454645" font-family="sans-serif" font-size="13" lengthAdjust="spacing" textLength="129" x="299" y="800.6269">Usuario autenticado</text><text fill="#454645" font-family="sans-serif" font-size="13" lengthAdjust="spacing" textLength="152" x="299" y="815.7597">encargado de gestionar</text><text fill="#454645" font-family="sans-serif" font-size="13" lengthAdjust="spacing" textLength="174" x="299" y="830.8925">el proceso de contrataci&#243;n.</text></g><g id="elem_GMN36"><path d="M309,9.5 L309,44.07 L151.98,61.3 L309,52.07 L309,73.0313 A3.5,3.5 0 0 0 312.5,76.5313 L468.5,76.5313 A3.5,3.5 0 0 0 472,73.0313 L472,16 L462,6 L312.5,6 A3.5,3.5 0 0 0 309,9.5 " fill="#90EE90" style="stroke:#454645;stroke-width:1.0;"/><path d="M462,6 L462,14.25 A1.75,1.75 0 0 0 463.75,16 L472,16 L462,6 " fill="#90EE90" style="stroke:#454645;stroke-width:1.0;"/><text fill="#454645" font-family="sans-serif" font-size="13" lengthAdjust="spacing" textLength="129" x="315" y="23.0669">Usuario autenticado</text><text fill="#454645" font-family="sans-serif" font-size="13" lengthAdjust="spacing" textLength="123" x="315" y="38.1997">con privilegios para</text><text fill="#454645" font-family="sans-serif" font-size="13" lengthAdjust="spacing" textLength="142" x="315" y="53.3325">configurar y mantener</text><text fill="#454645" font-family="sans-serif" font-size="13" lengthAdjust="spacing" textLength="70" x="315" y="68.4653">el sistema.</text></g><g id="elem_GMN39"><path d="M9.5,622.06 L9.5,670.4584 A3.5,3.5 0 0 0 13,673.9584 L195,673.9584 A3.5,3.5 0 0 0 198.5,670.4584 L198.5,653.23 L304.77,652.58 L198.5,645.23 L198.5,628.56 L188.5,618.56 L13,618.56 A3.5,3.5 0 0 0 9.5,622.06 " fill="#90EE90" style="stroke:#454645;stroke-width:1.0;"/><path d="M188.5,618.56 L188.5,626.81 A1.75,1.75 0 0 0 190.25,628.56 L198.5,628.56 L188.5,618.56 " fill="#90EE90" style="stroke:#454645;stroke-width:1.0;"/><text fill="#454645" font-family="sans-serif" font-size="13" lengthAdjust="spacing" textLength="168" x="15.5" y="635.6269">Permite a los reclutadores</text><text fill="#454645" font-family="sans-serif" font-size="13" lengthAdjust="spacing" textLength="144" x="15.5" y="650.7597">crear, editar y eliminar</text><text fill="#454645" font-family="sans-serif" font-size="13" lengthAdjust="spacing" textLength="134" x="15.5" y="665.8925">vacantes de empleo.</text></g><g id="elem_GMN42"><path d="M263,205.06 L263,253.4584 A3.5,3.5 0 0 0 266.5,256.9584 L514.5,256.9584 A3.5,3.5 0 0 0 518,253.4584 L518,211.56 L508,201.56 L266.5,201.56 A3.5,3.5 0 0 0 263,205.06 " fill="#90EE90" style="stroke:#454645;stroke-width:1.0;"/><path d="M508,201.56 L508,209.81 A1.75,1.75 0 0 0 509.75,211.56 L518,211.56 L508,201.56 " fill="#90EE90" style="stroke:#454645;stroke-width:1.0;"/><text fill="#454645" font-family="sans-serif" font-size="13" lengthAdjust="spacing" textLength="166" x="269" y="218.6269">Permite publicar vacantes</text><text fill="#454645" font-family="sans-serif" font-size="13" lengthAdjust="spacing" textLength="190" x="269" y="233.7597">en el sitio web de la empresa,</text><text fill="#454645" font-family="sans-serif" font-size="13" lengthAdjust="spacing" textLength="234" x="269" y="248.8925">portales de empleo y redes sociales.</text></g><g id="elem_GMN45"><path d="M14.5,442.06 L14.5,490.4584 A3.5,3.5 0 0 0 18,493.9584 L190,493.9584 A3.5,3.5 0 0 0 193.5,490.4584 L193.5,480.88 L324.33,492.47 L193.5,472.88 L193.5,448.56 L183.5,438.56 L18,438.56 A3.5,3.5 0 0 0 14.5,442.06 " fill="#90EE90" style="stroke:#454645;stroke-width:1.0;"/><path d="M183.5,438.56 L183.5,446.81 A1.75,1.75 0 0 0 185.25,448.56 L193.5,448.56 L183.5,438.56 " fill="#90EE90" style="stroke:#454645;stroke-width:1.0;"/><text fill="#454645" font-family="sans-serif" font-size="13" lengthAdjust="spacing" textLength="158" x="20.5" y="455.6269">Permite a los candidatos</text><text fill="#454645" font-family="sans-serif" font-size="13" lengthAdjust="spacing" textLength="136" x="20.5" y="470.7597">enviar sus solicitudes</text><text fill="#454645" font-family="sans-serif" font-size="13" lengthAdjust="spacing" textLength="72" x="20.5" y="485.8925">de empleo.</text></g><g id="elem_GMN48"><path d="M9.5,712.06 L9.5,760.4584 A3.5,3.5 0 0 0 13,763.9584 L195,763.9584 A3.5,3.5 0 0 0 198.5,760.4584 L198.5,737.95 L306.66,731.3 L198.5,729.95 L198.5,718.56 L188.5,708.56 L13,708.56 A3.5,3.5 0 0 0 9.5,712.06 " fill="#90EE90" style="stroke:#454645;stroke-width:1.0;"/><path d="M188.5,708.56 L188.5,716.81 A1.75,1.75 0 0 0 190.25,718.56 L198.5,718.56 L188.5,708.56 " fill="#90EE90" style="stroke:#454645;stroke-width:1.0;"/><text fill="#454645" font-family="sans-serif" font-size="13" lengthAdjust="spacing" textLength="168" x="15.5" y="725.6269">Permite a los reclutadores</text><text fill="#454645" font-family="sans-serif" font-size="13" lengthAdjust="spacing" textLength="127" x="15.5" y="740.7597">revisar y evaluar las</text><text fill="#454645" font-family="sans-serif" font-size="13" lengthAdjust="spacing" textLength="132" x="15.5" y="755.8925">solicitudes recibidas.</text></g><g id="elem_GMN51"><path d="M278,295.06 L278,343.4584 A3.5,3.5 0 0 0 281.5,346.9584 L499.5,346.9584 A3.5,3.5 0 0 0 503,343.4584 L503,301.56 L493,291.56 L281.5,291.56 A3.5,3.5 0 0 0 278,295.06 " fill="#90EE90" style="stroke:#454645;stroke-width:1.0;"/><path d="M493,291.56 L493,299.81 A1.75,1.75 0 0 0 494.75,301.56 L503,301.56 L493,291.56 " fill="#90EE90" style="stroke:#454645;stroke-width:1.0;"/><text fill="#454645" font-family="sans-serif" font-size="13" lengthAdjust="spacing" textLength="204" x="284" y="308.6269">Permite realizar un seguimiento</text><text fill="#454645" font-family="sans-serif" font-size="13" lengthAdjust="spacing" textLength="189" x="284" y="323.7597">del estado de cada candidato</text><text fill="#454645" font-family="sans-serif" font-size="13" lengthAdjust="spacing" textLength="194" x="284" y="338.8925">en el proceso de contrataci&#243;n.</text></g><g id="elem_GMN54"><path d="M661.28,929.06 L661.28,977.4584 A3.5,3.5 0 0 0 664.78,980.9584 L891.78,980.9584 A3.5,3.5 0 0 0 895.28,977.4584 L895.28,935.56 L885.28,925.56 L664.78,925.56 A3.5,3.5 0 0 0 661.28,929.06 " fill="#90EE90" style="stroke:#454645;stroke-width:1.0;"/><path d="M885.28,925.56 L885.28,933.81 A1.75,1.75 0 0 0 887.03,935.56 L895.28,935.56 L885.28,925.56 " fill="#90EE90" style="stroke:#454645;stroke-width:1.0;"/><text fill="#454645" font-family="sans-serif" font-size="13" lengthAdjust="spacing" textLength="197" x="667.28" y="942.6269">Permite programar entrevistas</text><text fill="#454645" font-family="sans-serif" font-size="13" lengthAdjust="spacing" textLength="213" x="667.28" y="957.7597">con los candidatos seleccionados</text><text fill="#454645" font-family="sans-serif" font-size="13" lengthAdjust="spacing" textLength="152" x="667.28" y="972.8925">y gestionar calendarios.</text></g><g id="elem_GMN57"><path d="M1039.68,784.06 L1039.68,832.4584 A3.5,3.5 0 0 0 1043.18,835.9584 L1222.18,835.9584 A3.5,3.5 0 0 0 1225.68,832.4584 L1225.68,798.56 L1388.66,736.38 L1225.68,790.56 L1225.68,790.56 L1215.68,780.56 L1043.18,780.56 A3.5,3.5 0 0 0 1039.68,784.06 " fill="#90EE90" style="stroke:#454645;stroke-width:1.0;"/><path d="M1215.68,780.56 L1215.68,788.81 A1.75,1.75 0 0 0 1217.43,790.56 L1225.68,790.56 L1215.68,780.56 " fill="#90EE90" style="stroke:#454645;stroke-width:1.0;"/><text fill="#454645" font-family="sans-serif" font-size="13" lengthAdjust="spacing" textLength="149" x="1045.68" y="797.6269">Permite calificar y dejar</text><text fill="#454645" font-family="sans-serif" font-size="13" lengthAdjust="spacing" textLength="142" x="1045.68" y="812.7597">comentarios sobre los</text><text fill="#454645" font-family="sans-serif" font-size="13" lengthAdjust="spacing" textLength="165" x="1045.68" y="827.8925">candidatos entrevistados.</text></g><g id="elem_GMN60"><path d="M1348.79,1162.06 L1348.79,1210.4584 A3.5,3.5 0 0 0 1352.29,1213.9584 L1534.29,1213.9584 A3.5,3.5 0 0 0 1537.79,1210.4584 L1537.79,1168.56 L1527.79,1158.56 L1352.29,1158.56 A3.5,3.5 0 0 0 1348.79,1162.06 " fill="#90EE90" style="stroke:#454645;stroke-width:1.0;"/><path d="M1527.79,1158.56 L1527.79,1166.81 A1.75,1.75 0 0 0 1529.54,1168.56 L1537.79,1168.56 L1527.79,1158.56 " fill="#90EE90" style="stroke:#454645;stroke-width:1.0;"/><text fill="#454645" font-family="sans-serif" font-size="13" lengthAdjust="spacing" textLength="158" x="1354.79" y="1175.6269">Permite generar y enviar</text><text fill="#454645" font-family="sans-serif" font-size="13" lengthAdjust="spacing" textLength="151" x="1354.79" y="1190.7597">ofertas de empleo a los</text><text fill="#454645" font-family="sans-serif" font-size="13" lengthAdjust="spacing" textLength="168" x="1354.79" y="1205.8925">candidatos seleccionados.</text></g><g id="elem_GMN63"><path d="M6,532.06 L6,580.4584 A3.5,3.5 0 0 0 9.5,583.9584 L198.5,583.9584 A3.5,3.5 0 0 0 202,580.4584 L202,567.09 L286.02,568.99 L202,559.09 L202,538.56 L192,528.56 L9.5,528.56 A3.5,3.5 0 0 0 6,532.06 " fill="#90EE90" style="stroke:#454645;stroke-width:1.0;"/><path d="M192,528.56 L192,536.81 A1.75,1.75 0 0 0 193.75,538.56 L202,538.56 L192,528.56 " fill="#90EE90" style="stroke:#454645;stroke-width:1.0;"/><text fill="#454645" font-family="sans-serif" font-size="13" lengthAdjust="spacing" textLength="175" x="12" y="545.6269">Permite generar informes y</text><text fill="#454645" font-family="sans-serif" font-size="13" lengthAdjust="spacing" textLength="157" x="12" y="560.7597">an&#225;lisis sobre el proceso</text><text fill="#454645" font-family="sans-serif" font-size="13" lengthAdjust="spacing" textLength="104" x="12" y="575.8925">de contrataci&#243;n.</text></g><g id="elem_GMN66"><path d="M10,240.06 L10,288.4584 A3.5,3.5 0 0 0 13.5,291.9584 L194.5,291.9584 A3.5,3.5 0 0 0 198,288.4584 L198,246.56 L188,236.56 L13.5,236.56 A3.5,3.5 0 0 0 10,240.06 " fill="#90EE90" style="stroke:#454645;stroke-width:1.0;"/><path d="M188,236.56 L188,244.81 A1.75,1.75 0 0 0 189.75,246.56 L198,246.56 L188,236.56 " fill="#90EE90" style="stroke:#454645;stroke-width:1.0;"/><text fill="#454645" font-family="sans-serif" font-size="13" lengthAdjust="spacing" textLength="167" x="16" y="253.6269">Permite la integraci&#243;n con</text><text fill="#454645" font-family="sans-serif" font-size="13" lengthAdjust="spacing" textLength="134" x="16" y="268.7597">sistemas de n&#243;mina,</text><text fill="#454645" font-family="sans-serif" font-size="13" lengthAdjust="spacing" textLength="151" x="16" y="283.8925">recursos humanos, etc.</text></g><!--link UC1 to UC2--><g id="link_UC1_UC2"><path d="M446.54,640.03 C468.83,633.63 494.74,625.91 518,618.26 C595.64,592.71 679.2715,561.2181 730.2215,541.5781 " fill="none" id="UC1-to-UC2" style="stroke:#454645;stroke-width:1.0;stroke-dasharray:7.0,7.0;"/><polygon fill="#454645" points="735.82,539.42,725.9836,538.9248,731.1546,541.2184,728.861,546.3894,735.82,539.42" style="stroke:#454645;stroke-width:1.0;"/><text fill="#000000" font-family="sans-serif" font-size="13" lengthAdjust="spacing" textLength="60" x="549" y="585.3269">&#171;extend&#187;</text></g><!--link UC4 to UC5--><g id="link_UC4_UC5"><path d="M473.31,725.87 C522.3,723.84 579.8051,721.4482 636.0751,719.1182 " fill="none" id="UC4-to-UC5" style="stroke:#454645;stroke-width:1.0;stroke-dasharray:7.0,7.0;"/><polygon fill="#454645" points="642.07,718.87,632.9122,715.2458,637.0743,719.0769,633.2432,723.2389,642.07,718.87" style="stroke:#454645;stroke-width:1.0;"/><text fill="#000000" font-family="sans-serif" font-size="13" lengthAdjust="spacing" textLength="60" x="549" y="717.3269">&#171;extend&#187;</text></g><!--link UC5 to UC6--><g id="link_UC5_UC6"><path d="M916.54,715.6 C957.41,716.29 995.2309,716.9372 1032.5809,717.5772 " fill="none" id="UC5-to-UC6" style="stroke:#454645;stroke-width:1.0;stroke-dasharray:7.0,7.0;"/><polygon fill="#454645" points="1038.58,717.68,1029.6499,713.5264,1033.5807,717.5943,1029.5128,721.5252,1038.58,717.68" style="stroke:#454645;stroke-width:1.0;"/><text fill="#000000" font-family="sans-serif" font-size="13" lengthAdjust="spacing" textLength="60" x="947.56" y="712.3269">&#171;extend&#187;</text></g><!--link UC6 to UC7--><g id="link_UC6_UC7"><path d="M1227.11,719.87 C1268.98,720.14 1311.9701,720.4216 1352.6201,720.6816 " fill="none" id="UC6-to-UC7" style="stroke:#454645;stroke-width:1.0;stroke-dasharray:7.0,7.0;"/><polygon fill="#454645" points="1358.62,720.72,1349.6458,716.6625,1353.6201,720.688,1349.5946,724.6624,1358.62,720.72" style="stroke:#454645;stroke-width:1.0;"/><text fill="#000000" font-family="sans-serif" font-size="13" lengthAdjust="spacing" textLength="60" x="1257.79" y="716.3269">&#171;extend&#187;</text></g><!--link UC7 to UC8--><g id="link_UC7_UC8"><path d="M1527.88,722.03 C1567.98,722.4 1610.5303,722.7942 1653.5203,723.1942 " fill="none" id="UC7-to-UC8" style="stroke:#454645;stroke-width:1.0;stroke-dasharray:7.0,7.0;"/><polygon fill="#454645" points="1659.52,723.25,1650.5576,719.1664,1654.5202,723.2035,1650.4832,727.1661,1659.52,723.25" style="stroke:#454645;stroke-width:1.0;"/><text fill="#000000" font-family="sans-serif" font-size="13" lengthAdjust="spacing" textLength="60" x="1568.79" y="719.3269">&#171;extend&#187;</text></g><!--link Candidato to UC3--><g id="link_Candidato_UC3"><path d="M139.08,383.09 C158.08,393.48 181.89,407.27 202,421.26 C227.14,438.76 227.79,451.29 255.06,465.26 C278.02,477.03 299.426,483.7544 323.366,489.1344 " fill="none" id="Candidato-to-UC3" style="stroke:#454645;stroke-width:1.0;"/><polygon fill="#454645" points="329.22,490.45,321.316,484.574,324.3417,489.3537,319.562,492.3793,329.22,490.45" style="stroke:#454645;stroke-width:1.0;"/></g><!--link Reclutador to UC1--><g id="link_Reclutador_UC1"><path d="M141.95,841.41 C161.14,824.86 184.23,803.23 202,781.26 C230.96,745.46 218.42,720.16 255.06,692.26 C272.39,679.06 288.3448,672.0864 309.2848,666.6164 " fill="none" id="Reclutador-to-UC1" style="stroke:#454645;stroke-width:1.0;"/><polygon fill="#454645" points="315.09,665.1,305.3712,663.5045,310.2523,666.3637,307.3932,671.2448,315.09,665.1" style="stroke:#454645;stroke-width:1.0;"/></g><!--link Reclutador to UC4--><g id="link_Reclutador_UC4"><path d="M141.98,850.1 C168.33,834.37 204.06,811.65 233,788.26 C243.77,779.56 243.08,773.22 255.06,766.26 C275.36,754.46 293.7608,747.752 316.0108,742.162 " fill="none" id="Reclutador-to-UC4" style="stroke:#454645;stroke-width:1.0;"/><polygon fill="#454645" points="321.83,740.7,312.1266,739.0135,316.9807,741.9183,314.0759,746.7724,321.83,740.7" style="stroke:#454645;stroke-width:1.0;"/></g><!--link Reclutador to UC5--><g id="link_Reclutador_UC5"><path d="M141.77,875.53 C214.98,882.81 383.51,893.5 518,856.26 C602.72,832.8 685.0501,780.3569 733.6401,745.8069 " fill="none" id="Reclutador-to-UC5" style="stroke:#454645;stroke-width:1.0;"/><polygon fill="#454645" points="738.53,742.33,728.8772,744.2855,734.4551,745.2275,733.5132,750.8053,738.53,742.33" style="stroke:#454645;stroke-width:1.0;"/></g><!--link Reclutador to UC6--><g id="link_Reclutador_UC6"><path d="M141.84,877.45 C167.14,881.46 201.51,886.45 232,889.26 C242.21,890.2 244.8,890.04 255.06,890.26 C371.89,892.79 402.21,906.09 518,890.26 C733.87,860.75 975.2807,777.4663 1077.6807,739.6963 " fill="none" id="Reclutador-to-UC6" style="stroke:#454645;stroke-width:1.0;"/><polygon fill="#454645" points="1083.31,737.62,1073.4819,736.9817,1078.6189,739.3503,1076.2503,744.4874,1083.31,737.62" style="stroke:#454645;stroke-width:1.0;"/></g><!--link Reclutador to UC7--><g id="link_Reclutador_UC7"><path d="M141.63,909.07 C192.41,957.22 289.31,1034.26 389.5,1034.26 C389.5,1034.26 389.5,1034.26 1133.68,1034.26 C1299.28,1034.26 1403.5661,814.8959 1432.2061,746.3759 " fill="none" id="Reclutador-to-UC7" style="stroke:#454645;stroke-width:1.0;"/><polygon fill="#454645" points="1434.52,740.84,1427.3586,747.6012,1432.5918,745.4532,1434.7398,750.6864,1434.52,740.84" style="stroke:#454645;stroke-width:1.0;"/></g><!--link Reclutador to UC8--><g id="link_Reclutador_UC8"><path d="M127.75,909.9 C170.13,976.36 267.99,1105.26 389.5,1105.26 C389.5,1105.26 389.5,1105.26 1444.29,1105.26 C1632.2,1105.26 1732.4024,839.1017 1759.5624,754.6817 " fill="none" id="Reclutador-to-UC8" style="stroke:#454645;stroke-width:1.0;"/><polygon fill="#454645" points="1761.4,748.97,1754.8358,756.3125,1759.8687,753.7297,1762.4514,758.7626,1761.4,748.97" style="stroke:#454645;stroke-width:1.0;"/></g><!--link Reclutador to UC9--><g id="link_Reclutador_UC9"><path d="M141.62,844.84 C161.91,828.54 186.16,806.04 202,781.26 C243.03,717.07 200.87,671.81 255.06,618.26 C267.84,605.63 278.7298,598.8365 295.7898,592.6465 " fill="none" id="Reclutador-to-UC9" style="stroke:#454645;stroke-width:1.0;"/><polygon fill="#454645" points="301.43,590.6,291.6054,589.9096,296.7298,592.3054,294.334,597.4299,301.43,590.6" style="stroke:#454645;stroke-width:1.0;"/></g><!--link Administrador to UC10--><g id="link_Administrador_UC10"><path d="M132.51,103.82 C153.37,134.19 181.81,178.13 202,219.26 C209.56,234.66 243.31,351.76 255.06,364.26 C271.98,382.28 289.8069,392.8972 312.3469,401.8872 " fill="none" id="Administrador-to-UC10" style="stroke:#454645;stroke-width:1.0;"/><polygon fill="#454645" points="317.92,404.11,311.0423,397.0604,313.2758,402.2577,308.0785,404.4912,317.92,404.11" style="stroke:#454645;stroke-width:1.0;"/></g><!--link Candidato to GMN30--><g id="link_Candidato_GMN30"><path d="M139.26,352.1 C159.73,342.77 184.99,328.48 202,309.26 C241.99,264.06 210.74,225.23 255.06,184.26 C269.88,170.56 289,161.02 308.14,154.38 " fill="none" id="Candidato-GMN30" style="stroke:#454645;stroke-width:1.0;stroke-dasharray:7.0,7.0;"/></g><!--link GMN42 to UC2--><g id="link_GMN42_UC2"><path d="M518.38,251.31 C550.19,260.76 582.93,274.2 610,293.26 C691.55,350.68 748.56,460.69 768.98,504.54 " fill="none" id="GMN42-UC2" style="stroke:#454645;stroke-width:1.0;stroke-dasharray:7.0,7.0;"/></g><!--link GMN51 to UC5--><g id="link_GMN51_UC5"><path d="M463.68,347.41 C482.56,356.79 502.06,368.43 518,382.26 C590.16,444.88 580.99,484.12 640,559.26 C675.4,604.33 720.17,653.22 748.78,683.55 " fill="none" id="GMN51-UC5" style="stroke:#454645;stroke-width:1.0;stroke-dasharray:7.0,7.0;"/></g><!--link GMN54 to UC6--><g id="link_GMN54_UC6"><path d="M895.7,949.97 C936.32,943.03 979.07,928.25 1008.56,898.26 C1051.66,854.44 1000.2,811.28 1038.56,763.26 C1047.94,751.53 1061.18,742.75 1074.75,736.27 " fill="none" id="GMN54-UC6" style="stroke:#454645;stroke-width:1.0;stroke-dasharray:7.0,7.0;"/></g><!--link GMN60 to UC8--><g id="link_GMN60_UC8"><path d="M1538.08,1176.25 C1570.61,1168.54 1605.08,1154.99 1629.79,1131.26 C1742.65,1022.94 1763.92,819.34 1767.92,748.95 " fill="none" id="GMN60-UC8" style="stroke:#454645;stroke-width:1.0;stroke-dasharray:7.0,7.0;"/></g><!--link GMN66 to UC10--><g id="link_GMN66_UC10"><path d="M174.09,292.43 C183.79,297.49 193.38,303.12 202,309.26 C229.66,328.96 227.19,344.85 255.06,364.26 C277.43,379.85 304.59,392.72 328.63,402.41 " fill="none" id="GMN66-UC10" style="stroke:#454645;stroke-width:1.0;stroke-dasharray:7.0,7.0;"/></g><!--SRC=[ZLLBRXin3DtFATXaqKqIE8b_AO80GJv5Tq7I7a3Mq1CL6icLD6xTeeVf0RhA4NonKXhDrrCdNer9Ik-9v2FVkMVC4PpU91ANZZx0YEpPGIeCSYUqIXB6dJPmSCDKAbBcz04m2_M_ols8N1QEfTe4V_Et2hXESw64TQQEwLYIn0CobKc4WoUoOixW-lFJ0VnAW7w5HSui-JwYzRoOWJNZJ3cquR8lDwVTk8TY8GNV3JlhXjsfjQ0WgobOk2ADKUVTg4TS2ziEgwyRzmEP53zz96Q5o0KgIccAmAjyLUScFRP6PuRbT91E68_cM1KwxJ5UCrbGuCwLitwY51gAqqiqT9bdWVbAeexXy-5mWojjA5sm0QQsVwImeWAuw9xuH5dD_16k5MXdj0LR5gukoIW9H-WBJawkVFRX0rnUuW-7AhswYivnT4w6d9Fed0uvfz4v6tBEedFUTGPltRzmV7nLrxlfscW-7JQFXysJOVDqs3mRDi-7pMNkEvAfE8wItqdo7cvnIJvEsi1GxA0xjA_e5mxlxwVdurcYjCCeVhriwHlW0OqbmS6t0c5HMCx8LdOIzGYgzVQljxIaqRJQIK8v1tzrykgWWCFf-69oTzjZqfeaL5HBdIyqi8AAwKZUgIU8YdIUqRS7pghvu1qILaPpjAK6DKcBESR5zaKDC7jbGi7XQ3GVZKOzVjqfzZ-ANY8h8zP2OYP8A2jcM6bUYgpm8jf0xiSKYR0a7gNKvhbROnAY3X-5rIMlCCQ9LjcxLBfSa9M1f3XJfvBQWi0DCdC4c0eNy57Im2eJLytCuKhsWCvQGAl-r0tbATz3PO7lkF1tIkQl9HhiY0Bym66oZKPi3FfEifeBxze3VxxppcOo1lHom1UstQBaUClJng_bqCJ5GDcBOraosrC37H4BuhFl4PCMaAbsIA7QQoHGba3j7JkTMeirRwqJ_PQExw5FsnKSsaInWxl99N8IkMz68kH3DetuA4mId5V2lcVFMi1qGYn3xso8-zVGXrpdn2BSGYbT6FGKlBqXqR1CzqBDMr1Pt7MRs1tasjcIPRsxM9q7xy6w6C0IQgbDxlSgEUlD6b_LbAripBSMZcP_WqIY4kLA3iVy9RuJuqhsrwhjYrVuKMXSNXW_F9uBcZlQqXnml47w1m00]--></g></svg>