<?xml version="1.0" encoding="us-ascii" standalone="no"?><svg xmlns="http://www.w3.org/2000/svg" xmlns:xlink="http://www.w3.org/1999/xlink" contentStyleType="text/css" height="393px" preserveAspectRatio="none" style="width:1513px;height:393px;background:#1B1B1B;" version="1.1" viewBox="0 0 1513 393" width="1513px" zoomAndPan="magnify"><defs/><g><rect fill="#1B1B1B" height="393" style="stroke:none;stroke-width:1.0;" width="1513" x="0" y="0"/><!--entity R--><g id="elem_R"><ellipse cx="716.5" cy="14" fill="#313139" rx="8" ry="8" style="stroke:#E7E7E7;stroke-width:0.5;"/><path d="M716.5,22 L716.5,49 M703.5,30 L729.5,30 M716.5,49 L703.5,64 M716.5,49 L729.5,64 " fill="none" style="stroke:#E7E7E7;stroke-width:0.5;"/><text fill="#FFFFFF" font-family="sans-serif" font-size="14" lengthAdjust="spacing" textLength="75" x="679" y="78.4951">Reclutador</text></g><!--entity HRM--><g id="elem_HRM"><ellipse cx="115.5" cy="320.59" fill="#313139" rx="8" ry="8" style="stroke:#E7E7E7;stroke-width:0.5;"/><path d="M115.5,328.59 L115.5,355.59 M102.5,336.59 L128.5,336.59 M115.5,355.59 L102.5,370.59 M115.5,355.59 L128.5,370.59 " fill="none" style="stroke:#E7E7E7;stroke-width:0.5;"/><text fill="#FFFFFF" font-family="sans-serif" font-size="14" lengthAdjust="spacing" textLength="219" x="6" y="385.0851">Gerente de Recursos Humanos</text></g><!--entity ATS--><g id="elem_ATS"><ellipse cx="716.5" cy="167.3" fill="#313139" rx="8" ry="8" style="stroke:#E7E7E7;stroke-width:0.5;"/><path d="M716.5,175.3 L716.5,202.3 M703.5,183.3 L729.5,183.3 M716.5,202.3 L703.5,217.3 M716.5,202.3 L729.5,217.3 " fill="none" style="stroke:#E7E7E7;stroke-width:0.5;"/><text fill="#FFFFFF" font-family="sans-serif" font-size="14" lengthAdjust="spacing" textLength="181" x="626" y="231.7951">Applicant Tracking System</text></g><g id="elem_RDP"><ellipse cx="450.4991" cy="350.2398" fill="#313139" rx="135.8991" ry="29.5798" style="stroke:#E7E7E7;stroke-width:0.5;"/><text fill="#FFFFFF" font-family="sans-serif" font-size="14" lengthAdjust="spacing" textLength="241" x="329.9991" y="353.0865">Recopilaci&#243;n de Datos del Proceso</text></g><g id="elem_GI"><ellipse cx="722.5022" cy="350.2364" fill="#313139" rx="100.8822" ry="22.5764" style="stroke:#E7E7E7;stroke-width:0.5;"/><text fill="#FFFFFF" font-family="sans-serif" font-size="14" lengthAdjust="spacing" textLength="166" x="639.5022" y="353.0831">Generaci&#243;n de Informes</text></g><g id="elem_AM"><ellipse cx="958.4968" cy="350.2374" fill="#313139" rx="87.0368" ry="19.8074" style="stroke:#E7E7E7;stroke-width:0.5;"/><text fill="#FFFFFF" font-family="sans-serif" font-size="14" lengthAdjust="spacing" textLength="135" x="890.9968" y="353.084">An&#225;lisis de M&#233;tricas</text></g><g id="elem_IM"><ellipse cx="1183.5042" cy="350.2408" fill="#313139" rx="102.7042" ry="22.9408" style="stroke:#E7E7E7;stroke-width:0.5;"/><text fill="#FFFFFF" font-family="sans-serif" font-size="14" lengthAdjust="spacing" textLength="170" x="1098.5042" y="353.0875">Identificaci&#243;n de Mejoras</text></g><g id="elem_DS"><ellipse cx="1414.5029" cy="350.2446" fill="#313139" rx="93.2229" ry="21.0446" style="stroke:#E7E7E7;stroke-width:0.5;"/><text fill="#FFFFFF" font-family="sans-serif" font-size="14" lengthAdjust="spacing" textLength="149" x="1340.0029" y="353.0913">Detecci&#243;n de Sesgos</text></g><!--link R to ATS--><g id="link_R_ATS"><path d="M678.75,47.23 C637.43,52.31 573,67.34 542.5,111.8 C515.88,150.6 564.778,170.9173 619.748,182.4573 " fill="none" id="R-to-ATS" style="stroke:#E7E7E7;stroke-width:1.0;"/><polygon fill="#E7E7E7" points="625.62,183.69,617.6338,177.9262,620.7267,182.6627,615.9902,185.7556,625.62,183.69" style="stroke:#E7E7E7;stroke-width:1.0;"/><text fill="#FFFFFF" font-family="sans-serif" font-size="13" lengthAdjust="spacing" textLength="301" x="543.5" y="124.8669">Proporciona datos sobre procesos de selecci&#243;n</text></g><!--link ATS to R--><g id="link_ATS_R"><path d="M807.38,167.1 C824.12,157.59 839.47,145.1 849.5,128.8 C874.77,87.72 807.8203,64.6652 760.1703,53.4452 " fill="none" id="ATS-to-R" style="stroke:#E7E7E7;stroke-width:1.0;"/><polygon fill="#E7E7E7" points="754.33,52.07,762.1736,58.0263,759.1969,53.216,764.0072,50.2393,754.33,52.07" style="stroke:#E7E7E7;stroke-width:1.0;"/><text fill="#FFFFFF" font-family="sans-serif" font-size="13" lengthAdjust="spacing" textLength="289" x="856.5" y="124.8669">Proporciona retroalimentaci&#243;n sobre mejoras</text></g><!--link ATS to RDP--><g id="link_ATS_RDP"><path d="M625.66,222.1 C594.69,232.63 560.77,246.81 532.5,265.09 C509.38,280.05 491.7098,298.0448 476.5098,316.0548 " fill="none" id="ATS-to-RDP" style="stroke:#E7E7E7;stroke-width:1.0;"/><polygon fill="#E7E7E7" points="472.64,320.64,481.5016,316.342,475.8649,316.819,475.3879,311.1823,472.64,320.64" style="stroke:#E7E7E7;stroke-width:1.0;"/><text fill="#FFFFFF" font-family="sans-serif" font-size="13" lengthAdjust="spacing" textLength="171" x="533.5" y="278.1569">Recopila datos del proceso</text></g><!--link ATS to GI--><g id="link_ATS_GI"><path d="M713.53,235.25 C712.8,249.87 712.48,266.78 713.5,282.09 C714.51,297.23 715.8787,308.2296 717.8887,321.3096 " fill="none" id="ATS-to-GI" style="stroke:#E7E7E7;stroke-width:1.0;"/><polygon fill="#E7E7E7" points="718.8,327.24,721.3866,317.7369,718.0406,322.298,713.4794,318.952,718.8,327.24" style="stroke:#E7E7E7;stroke-width:1.0;"/><text fill="#FFFFFF" font-family="sans-serif" font-size="13" lengthAdjust="spacing" textLength="207" x="714.5" y="278.1569">Genera informes personalizados</text></g><!--link ATS to AM--><g id="link_ATS_AM"><path d="M807.3,208.83 C848.13,217.9 894.27,234.55 926.5,265.09 C944.77,282.4 951.6567,305.3132 955.0467,324.3232 " fill="none" id="ATS-to-AM" style="stroke:#E7E7E7;stroke-width:1.0;"/><polygon fill="#E7E7E7" points="956.1,330.23,958.4579,320.6675,955.2222,325.3077,950.5821,322.072,956.1,330.23" style="stroke:#E7E7E7;stroke-width:1.0;"/><text fill="#FFFFFF" font-family="sans-serif" font-size="13" lengthAdjust="spacing" textLength="143" x="940.5" y="278.1569">Analiza m&#233;tricas clave</text></g><!--link HRM to ATS--><g id="link_HRM_ATS"><path d="M201.85,311.63 C241.64,295.46 289.85,277.47 334.5,265.09 C432.48,237.93 541.8344,220.2562 619.9344,209.6662 " fill="none" id="HRM-to-ATS" style="stroke:#E7E7E7;stroke-width:1.0;"/><polygon fill="#E7E7E7" points="625.88,208.86,616.4242,206.1056,620.9253,209.5318,617.4991,214.033,625.88,208.86" style="stroke:#E7E7E7;stroke-width:1.0;"/><text fill="#FFFFFF" font-family="sans-serif" font-size="13" lengthAdjust="spacing" textLength="168" x="335.5" y="278.1569">Solicita informes y an&#225;lisis</text></g><!--link ATS to HRM--><g id="link_ATS_HRM"><path d="M625.67,200.89 C457.97,207.26 113.49,225.12 77.5,265.09 C65.49,278.43 67.9812,291.1851 78.2712,306.9551 " fill="none" id="ATS-to-HRM" style="stroke:#E7E7E7;stroke-width:1.0;"/><polygon fill="#E7E7E7" points="81.55,311.98,79.9818,302.2568,78.8177,307.7926,73.2819,306.6285,81.55,311.98" style="stroke:#E7E7E7;stroke-width:1.0;"/><text fill="#FFFFFF" font-family="sans-serif" font-size="13" lengthAdjust="spacing" textLength="198" x="78.5" y="278.1569">Proporciona informes y an&#225;lisis</text></g><!--link ATS to IM--><g id="link_ATS_IM"><path d="M807.17,199.94 C886.24,204.9 1002.1,220.14 1092.5,265.09 C1122.36,279.95 1145.5227,303.098 1162.2327,322.658 " fill="none" id="ATS-to-IM" style="stroke:#E7E7E7;stroke-width:1.0;"/><polygon fill="#E7E7E7" points="1166.13,327.22,1163.3254,317.7789,1162.8823,323.4184,1157.2428,322.9752,1166.13,327.22" style="stroke:#E7E7E7;stroke-width:1.0;"/><text fill="#FFFFFF" font-family="sans-serif" font-size="13" lengthAdjust="spacing" textLength="166" x="1119.5" y="278.1569">Identifica &#225;reas de mejora</text></g><!--link ATS to DS--><g id="link_ATS_DS"><path d="M807.33,203.05 C947.04,211.81 1207.64,232.04 1294.5,265.09 C1333.03,279.75 1366.3496,305.5918 1388.9296,325.5018 " fill="none" id="ATS-to-DS" style="stroke:#E7E7E7;stroke-width:1.0;"/><polygon fill="#E7E7E7" points="1393.43,329.47,1389.3249,320.5174,1389.6797,326.1632,1384.034,326.5179,1393.43,329.47" style="stroke:#E7E7E7;stroke-width:1.0;"/><text fill="#FFFFFF" font-family="sans-serif" font-size="13" lengthAdjust="spacing" textLength="156" x="1328.5" y="278.1569">Detecta posibles sesgos</text></g><!--SRC=[VP5DReCm48Ntd6AKVIxGHIKa9C82AO9Sm36JoAsnaSTKIc-JPTSz0XVhsEQlNNHhllTuxusGtZeuD2Zrw4LdtG44GPE9z5wYG-CHEWH6HaUMu3JsmbYAuAcf5pGV1gsaC1ukJiXtPUxGFiXZ7y7yqcRPI2W5OVoT7PGMKatV9fWNmhDpXnhEpaeacs8KvqrJea6tAIfpiwx75AEiDYutqrChKi4EwkdBEqwLiBpUiAhZOkh6trRB6j-icz5gXnReKQvKYtIVsnVSgO7ZyJNKWvUGVR1EAci4TB4HsQj365Adc8XGpsPP40KnrsJniici35lCkXKiA-RI3g3c_Z0WNyK8hJxvVBIoUSridjwXNsO0gSK7PXdVRPUxjNmvvNUc3n3BZAjZ5HotsM1wEXInKn-7My4YUCRHs7AmfAwQBIdkbgrKYF1xid__tlo17NfdkLtFUUOJfh5J6Fe1]--></g></svg>