<?xml version="1.0" encoding="us-ascii" standalone="no"?><svg xmlns="http://www.w3.org/2000/svg" xmlns:xlink="http://www.w3.org/1999/xlink" contentStyleType="text/css" height="371px" preserveAspectRatio="none" style="width:1430px;height:371px;background:#1B1B1B;" version="1.1" viewBox="0 0 1430 371" width="1430px" zoomAndPan="magnify"><defs/><g><rect fill="#1B1B1B" height="371" style="stroke:none;stroke-width:1.0;" width="1430" x="0" y="0"/><!--entity R--><g id="elem_R"><ellipse cx="288.89" cy="14" fill="#313139" rx="8" ry="8" style="stroke:#E7E7E7;stroke-width:0.5;"/><path d="M288.89,22 L288.89,49 M275.89,30 L301.89,30 M288.89,49 L275.89,64 M288.89,49 L301.89,64 " fill="none" style="stroke:#E7E7E7;stroke-width:0.5;"/><text fill="#FFFFFF" font-family="sans-serif" font-size="14" lengthAdjust="spacing" textLength="75" x="251.39" y="78.4951">Reclutador</text></g><!--entity C--><g id="elem_C"><ellipse cx="905.89" cy="14" fill="#313139" rx="8" ry="8" style="stroke:#E7E7E7;stroke-width:0.5;"/><path d="M905.89,22 L905.89,49 M892.89,30 L918.89,30 M905.89,49 L892.89,64 M905.89,49 L918.89,64 " fill="none" style="stroke:#E7E7E7;stroke-width:0.5;"/><text fill="#FFFFFF" font-family="sans-serif" font-size="14" lengthAdjust="spacing" textLength="70" x="870.89" y="78.4951">Candidato</text></g><!--entity ATS--><g id="elem_ATS"><ellipse cx="905.89" cy="167.3" fill="#313139" rx="8" ry="8" style="stroke:#E7E7E7;stroke-width:0.5;"/><path d="M905.89,175.3 L905.89,202.3 M892.89,183.3 L918.89,183.3 M905.89,202.3 L892.89,217.3 M905.89,202.3 L918.89,217.3 " fill="none" style="stroke:#E7E7E7;stroke-width:0.5;"/><text fill="#FFFFFF" font-family="sans-serif" font-size="14" lengthAdjust="spacing" textLength="181" x="815.39" y="231.7951">Applicant Tracking System</text></g><g id="elem_P"><ellipse cx="97.8872" cy="196.9474" fill="#313139" rx="91.8872" ry="20.7774" style="stroke:#E7E7E7;stroke-width:0.5;"/><text fill="#FFFFFF" font-family="sans-serif" font-size="14" lengthAdjust="spacing" textLength="146" x="24.8872" y="199.7941">Publicaci&#243;n de Oferta</text></g><g id="elem_RCV"><ellipse cx="531.8917" cy="338.7443" fill="#313139" rx="112.3717" ry="24.8743" style="stroke:#E7E7E7;stroke-width:0.5;"/><text fill="#FFFFFF" font-family="sans-serif" font-size="14" lengthAdjust="spacing" textLength="191" x="436.3917" y="341.591">Recepci&#243;n de Candidaturas</text></g><g id="elem_F"><ellipse cx="780.8871" cy="338.7374" fill="#313139" rx="101.3371" ry="22.6674" style="stroke:#E7E7E7;stroke-width:0.5;"/><text fill="#FFFFFF" font-family="sans-serif" font-size="14" lengthAdjust="spacing" textLength="167" x="697.3871" y="341.5841">Filtrado de Candidaturas</text></g><g id="elem_PI"><ellipse cx="1031.8914" cy="338.7423" fill="#313139" rx="115.1614" ry="25.4323" style="stroke:#E7E7E7;stroke-width:0.5;"/><text fill="#FFFFFF" font-family="sans-serif" font-size="14" lengthAdjust="spacing" textLength="197" x="933.3914" y="341.589">Programaci&#243;n de Entrevistas</text></g><g id="elem_E"><ellipse cx="288.8894" cy="196.9519" fill="#313139" rx="64.0594" ry="15.2119" style="stroke:#E7E7E7;stroke-width:0.5;"/><text fill="#FFFFFF" font-family="sans-serif" font-size="14" lengthAdjust="spacing" textLength="76" x="247.8894" y="200.6994">Entrevistas</text></g><g id="elem_SC"><ellipse cx="488.8922" cy="196.9464" fill="#313139" rx="100.8822" ry="22.5764" style="stroke:#E7E7E7;stroke-width:0.5;"/><text fill="#FFFFFF" font-family="sans-serif" font-size="14" lengthAdjust="spacing" textLength="166" x="405.8922" y="199.7931">Selecci&#243;n del Candidato</text></g><g id="elem_CC"><ellipse cx="1302.891" cy="338.7382" fill="#313139" rx="121.241" ry="26.6482" style="stroke:#E7E7E7;stroke-width:0.5;"/><text fill="#FFFFFF" font-family="sans-serif" font-size="14" lengthAdjust="spacing" textLength="210" x="1197.891" y="341.5849">Comunicaci&#243;n con Candidatos</text></g><!--link R to P--><g id="link_R_P"><path d="M251.26,69.1 C232.95,81.39 210.86,96.83 191.89,111.8 C165.4,132.69 141.1339,154.7722 122.5139,172.3422 " fill="none" id="R-to-P" style="stroke:#E7E7E7;stroke-width:1.0;"/><polygon fill="#E7E7E7" points="118.15,176.46,127.4411,173.1925,121.7866,173.0285,121.9506,167.374,118.15,176.46" style="stroke:#E7E7E7;stroke-width:1.0;"/><text fill="#FFFFFF" font-family="sans-serif" font-size="13" lengthAdjust="spacing" textLength="87" x="192.89" y="124.8669">Publica oferta</text></g><!--link ATS to RCV--><g id="link_ATS_RCV"><path d="M815.1,224.19 C777.28,235.77 733.12,250.14 693.89,265.09 C653.85,280.35 614.955,297.8969 582.805,313.0869 " fill="none" id="ATS-to-RCV" style="stroke:#E7E7E7;stroke-width:1.0;"/><polygon fill="#E7E7E7" points="577.38,315.65,587.2262,315.4219,581.9008,313.514,583.8087,308.1886,577.38,315.65" style="stroke:#E7E7E7;stroke-width:1.0;"/><text fill="#FFFFFF" font-family="sans-serif" font-size="13" lengthAdjust="spacing" textLength="129" x="694.89" y="278.1569">Recibe candidaturas</text></g><!--link ATS to F--><g id="link_ATS_F"><path d="M872.39,235.41 C849.25,261.29 823.2887,290.3167 804.0787,311.8067 " fill="none" id="ATS-to-F" style="stroke:#E7E7E7;stroke-width:1.0;"/><polygon fill="#E7E7E7" points="800.08,316.28,809.0602,312.2359,803.4122,312.5523,803.0959,306.9043,800.08,316.28" style="stroke:#E7E7E7;stroke-width:1.0;"/><text fill="#FFFFFF" font-family="sans-serif" font-size="13" lengthAdjust="spacing" textLength="118" x="844.89" y="278.1569">Filtra candidaturas</text></g><!--link ATS to PI--><g id="link_ATS_PI"><path d="M943.82,235.39 C953.16,244.92 963.02,255.26 971.89,265.09 C986.02,280.77 997.3787,294.4153 1008.9087,308.7453 " fill="none" id="ATS-to-PI" style="stroke:#E7E7E7;stroke-width:1.0;"/><polygon fill="#E7E7E7" points="1012.67,313.42,1010.1445,303.9004,1009.5356,309.5244,1003.9116,308.9155,1012.67,313.42" style="stroke:#E7E7E7;stroke-width:1.0;"/><text fill="#FFFFFF" font-family="sans-serif" font-size="13" lengthAdjust="spacing" textLength="138" x="985.89" y="278.1569">Programa entrevistas</text></g><!--link R to E--><g id="link_R_E"><path d="M288.89,82.05 C288.89,114.07 288.89,152.51 288.89,175.26 " fill="none" id="R-to-E" style="stroke:#E7E7E7;stroke-width:1.0;"/><polygon fill="#E7E7E7" points="288.89,181.26,292.89,172.26,288.89,176.26,284.89,172.26,288.89,181.26" style="stroke:#E7E7E7;stroke-width:1.0;"/><text fill="#FFFFFF" font-family="sans-serif" font-size="13" lengthAdjust="spacing" textLength="131" x="289.89" y="124.8669">Conduce entrevistas</text></g><!--link R to SC--><g id="link_R_SC"><path d="M326.64,56.58 C356.91,67.49 399.24,85.89 429.89,111.8 C450.6,129.31 464.5909,150.448 474.9209,168.998 " fill="none" id="R-to-SC" style="stroke:#E7E7E7;stroke-width:1.0;"/><polygon fill="#E7E7E7" points="477.84,174.24,476.956,164.4309,475.4074,169.8717,469.9666,168.3231,477.84,174.24" style="stroke:#E7E7E7;stroke-width:1.0;"/><text fill="#FFFFFF" font-family="sans-serif" font-size="13" lengthAdjust="spacing" textLength="136" x="446.89" y="124.8669">Selecciona candidato</text></g><!--link ATS to CC--><g id="link_ATS_CC"><path d="M996.7,222.2 C1038.53,234.03 1088.61,249.15 1132.89,265.09 C1173.65,279.78 1213.2284,296.718 1246.6984,311.778 " fill="none" id="ATS-to-CC" style="stroke:#E7E7E7;stroke-width:1.0;"/><polygon fill="#E7E7E7" points="1252.17,314.24,1245.6039,306.8993,1247.6103,312.1883,1242.3212,314.1948,1252.17,314.24" style="stroke:#E7E7E7;stroke-width:1.0;"/><text fill="#FFFFFF" font-family="sans-serif" font-size="13" lengthAdjust="spacing" textLength="141" x="1175.89" y="278.1569">Env&#237;a comunicaciones</text></g><!--link C to ATS--><g id="link_C_ATS"><path d="M870.44,49.23 C809.48,57.92 688.89,78.91 663.89,111.8 C620.14,169.34 723.4536,187.3268 809.1236,193.0968 " fill="none" id="C-to-ATS" style="stroke:#E7E7E7;stroke-width:1.0;"/><polygon fill="#E7E7E7" points="815.11,193.5,806.3991,188.9042,810.1213,193.164,805.8615,196.8862,815.11,193.5" style="stroke:#E7E7E7;stroke-width:1.0;"/><text fill="#FFFFFF" font-family="sans-serif" font-size="13" lengthAdjust="spacing" textLength="114" x="664.89" y="124.8669">Env&#237;a candidatura</text></g><!--link ATS to C--><g id="link_ATS_C"><path d="M835.81,158.7 C820.58,145.48 811.28,129.44 819.89,111.8 C830.44,90.18 846.5455,76.5843 865.2855,65.2543 " fill="none" id="ATS-to-C" style="stroke:#E7E7E7;stroke-width:1.0;"/><polygon fill="#E7E7E7" points="870.42,62.15,860.6487,63.3834,866.1412,64.7369,864.7877,70.2294,870.42,62.15" style="stroke:#E7E7E7;stroke-width:1.0;"/><text fill="#FFFFFF" font-family="sans-serif" font-size="13" lengthAdjust="spacing" textLength="124" x="820.89" y="124.8669">Confirma recepci&#243;n</text></g><!--link ATS to C--><g id="link_ATS_C"><path d="M939.98,158.3 C948.8,144.22 954.65,127.75 949.89,111.8 C946.82,101.51 944.7979,96.423 939.0279,87.223 " fill="none" id="ATS-to-C-1" style="stroke:#E7E7E7;stroke-width:1.0;"/><polygon fill="#E7E7E7" points="935.84,82.14,937.2332,91.8898,938.4966,86.3758,944.0106,87.6392,935.84,82.14" style="stroke:#E7E7E7;stroke-width:1.0;"/><text fill="#FFFFFF" font-family="sans-serif" font-size="13" lengthAdjust="spacing" textLength="131" x="951.89" y="124.8669">Programa entrevista</text></g><!--link ATS to C--><g id="link_ATS_C"><path d="M996.81,185.98 C1057.61,175.34 1121.47,153.93 1091.89,111.8 C1057.76,63.19 990.7887,50.1147 947.0787,46.4247 " fill="none" id="ATS-to-C-2" style="stroke:#E7E7E7;stroke-width:1.0;"/><polygon fill="#E7E7E7" points="941.1,45.92,949.7316,50.6629,946.0823,46.3406,950.4046,42.6913,941.1,45.92" style="stroke:#E7E7E7;stroke-width:1.0;"/><text fill="#FFFFFF" font-family="sans-serif" font-size="13" lengthAdjust="spacing" textLength="166" x="1099.89" y="124.8669">Notifica selecci&#243;n/rechazo</text></g><!--SRC=[RP7DQiCm48JlUeh5zz1x3uKWRCYbDN7eVIElKr5R6oGvqBvJJts4l5ZbFoaklce-PcT6g3nRo8wasjvZpJO3T70KEBrBDBMkqVFuB9Vd_VNQQeN6mycY-jJc0jMNyzIDsFvK2T4xKkW8ih8_3wpIzry3DS5RGzRZ29Q92W7e6fdbR6_HJO7aUs8BtNeRicwInSDbonUBNJgT6s_fffsVsVAGuFzQdgIAMbABIGlhJIgPGCbTRs9NnIQnawcKGXnXjtk14fvXNWPuN4I4sKOfT0rY64IV2TH3lqWKGPz6sDRBm-0-jmTApURZUP0bcxfNjA5MCiXpPpRf14T_EH2vkTr_WXexio4dX1o9WKn8ofWifWYDjY6XZP-_qZSQhFHNzheP1dJnWvw2rGT-yny0]--></g></svg>