<?xml version="1.0" encoding="us-ascii" standalone="no"?><svg xmlns="http://www.w3.org/2000/svg" xmlns:xlink="http://www.w3.org/1999/xlink" contentStyleType="text/css" height="393px" preserveAspectRatio="none" style="width:1707px;height:393px;background:#1B1B1B;" version="1.1" viewBox="0 0 1707 393" width="1707px" zoomAndPan="magnify"><defs/><g><rect fill="#1B1B1B" height="393" style="stroke:none;stroke-width:1.0;" width="1707" x="0" y="0"/><!--entity R--><g id="elem_R"><ellipse cx="717.64" cy="14" fill="#313139" rx="8" ry="8" style="stroke:#E7E7E7;stroke-width:0.5;"/><path d="M717.64,22 L717.64,49 M704.64,30 L730.64,30 M717.64,49 L704.64,64 M717.64,49 L730.64,64 " fill="none" style="stroke:#E7E7E7;stroke-width:0.5;"/><text fill="#FFFFFF" font-family="sans-serif" font-size="14" lengthAdjust="spacing" textLength="75" x="680.14" y="78.4951">Reclutador</text></g><!--entity C--><g id="elem_C"><ellipse cx="319.64" cy="320.59" fill="#313139" rx="8" ry="8" style="stroke:#E7E7E7;stroke-width:0.5;"/><path d="M319.64,328.59 L319.64,355.59 M306.64,336.59 L332.64,336.59 M319.64,355.59 L306.64,370.59 M319.64,355.59 L332.64,370.59 " fill="none" style="stroke:#E7E7E7;stroke-width:0.5;"/><text fill="#FFFFFF" font-family="sans-serif" font-size="14" lengthAdjust="spacing" textLength="70" x="284.64" y="385.0851">Candidato</text></g><!--entity ATS--><g id="elem_ATS"><ellipse cx="717.64" cy="167.3" fill="#313139" rx="8" ry="8" style="stroke:#E7E7E7;stroke-width:0.5;"/><path d="M717.64,175.3 L717.64,202.3 M704.64,183.3 L730.64,183.3 M717.64,202.3 L704.64,217.3 M717.64,202.3 L730.64,217.3 " fill="none" style="stroke:#E7E7E7;stroke-width:0.5;"/><text fill="#FFFFFF" font-family="sans-serif" font-size="14" lengthAdjust="spacing" textLength="181" x="627.14" y="231.7951">Applicant Tracking System</text></g><g id="elem_EC"><ellipse cx="881.6372" cy="43.6474" fill="#313139" rx="91.8872" ry="20.7774" style="stroke:#E7E7E7;stroke-width:0.5;"/><text fill="#FFFFFF" font-family="sans-serif" font-size="14" lengthAdjust="spacing" textLength="146" x="808.6372" y="46.4941">Env&#237;o de Candidatura</text></g><g id="elem_CR"><ellipse cx="1120.6379" cy="43.6516" fill="#313139" rx="111.9079" ry="24.7816" style="stroke:#E7E7E7;stroke-width:0.5;"/><text fill="#FFFFFF" font-family="sans-serif" font-size="14" lengthAdjust="spacing" textLength="190" x="1025.6379" y="46.4983">Confirmaci&#243;n de Recepci&#243;n</text></g><g id="elem_SP"><ellipse cx="717.6351" cy="350.235" fill="#313139" rx="104.0751" ry="23.215" style="stroke:#E7E7E7;stroke-width:0.5;"/><text fill="#FFFFFF" font-family="sans-serif" font-size="14" lengthAdjust="spacing" textLength="173" x="631.1351" y="353.0817">Seguimiento del Proceso</text></g><g id="elem_PI"><ellipse cx="983.6443" cy="350.2389" fill="#313139" rx="111.4443" ry="24.6889" style="stroke:#E7E7E7;stroke-width:0.5;"/><text fill="#FFFFFF" font-family="sans-serif" font-size="14" lengthAdjust="spacing" textLength="189" x="889.1443" y="353.0855">Programaci&#243;n de Entrevista</text></g><g id="elem_CS"><ellipse cx="1234.6411" cy="350.2382" fill="#313139" rx="104.9911" ry="23.3982" style="stroke:#E7E7E7;stroke-width:0.5;"/><text fill="#FFFFFF" font-family="sans-serif" font-size="14" lengthAdjust="spacing" textLength="175" x="1147.1411" y="353.0849">Comunicaci&#243;n del Estado</text></g><g id="elem_RC"><ellipse cx="1498.6405" cy="350.2441" fill="#313139" rx="123.1205" ry="27.0241" style="stroke:#E7E7E7;stroke-width:0.5;"/><text fill="#FFFFFF" font-family="sans-serif" font-size="14" lengthAdjust="spacing" textLength="214" x="1391.6405" y="353.0908">Retroalimentaci&#243;n al Candidato</text></g><!--link C to ATS--><g id="link_C_ATS"><path d="M354.82,338.64 C395.56,326.12 464.53,304.2 522.64,282.09 C560.04,267.87 595.2682,253.0066 629.7882,237.8166 " fill="none" id="C-to-ATS" style="stroke:#E7E7E7;stroke-width:1.0;"/><polygon fill="#E7E7E7" points="635.28,235.4,625.4312,235.3637,630.7035,237.4138,628.6533,242.6861,635.28,235.4" style="stroke:#E7E7E7;stroke-width:1.0;"/><text fill="#FFFFFF" font-family="sans-serif" font-size="13" lengthAdjust="spacing" textLength="114" x="561.64" y="278.1569">Env&#237;a candidatura</text></g><!--link ATS to C--><g id="link_ATS_C"><path d="M626.72,200.73 C456.9,206.88 105.32,224.43 68.64,265.09 C6,334.55 195.5619,346.5987 278.4019,348.6887 " fill="none" id="ATS-to-C" style="stroke:#E7E7E7;stroke-width:1.0;"/><polygon fill="#E7E7E7" points="284.4,348.84,275.5037,344.6143,279.4016,348.7139,275.302,352.6117,284.4,348.84" style="stroke:#E7E7E7;stroke-width:1.0;"/><text fill="#FFFFFF" font-family="sans-serif" font-size="13" lengthAdjust="spacing" textLength="206" x="69.64" y="278.1569">Env&#237;a confirmaci&#243;n de recepci&#243;n</text></g><!--link ATS to C--><g id="link_ATS_C"><path d="M626.85,199.85 C520.01,204.23 352.11,218.54 312.64,265.09 C301.93,277.73 300.7741,289.7351 304.2341,305.7651 " fill="none" id="ATS-to-C-1" style="stroke:#E7E7E7;stroke-width:1.0;"/><polygon fill="#E7E7E7" points="305.5,311.63,307.5111,301.9887,304.4451,306.7426,299.6912,303.6765,305.5,311.63" style="stroke:#E7E7E7;stroke-width:1.0;"/><text fill="#FFFFFF" font-family="sans-serif" font-size="13" lengthAdjust="spacing" textLength="200" x="313.64" y="278.1569">Ofrece informaci&#243;n y asistencia</text></g><!--link ATS to SP--><g id="link_ATS_SP"><path d="M715.39,235.22 C714.74,249.83 714.3,266.75 714.64,282.09 C714.98,296.91 715.416,307.5577 716.076,320.5677 " fill="none" id="ATS-to-SP" style="stroke:#E7E7E7;stroke-width:1.0;"/><polygon fill="#E7E7E7" points="716.38,326.56,719.9189,317.3689,716.1267,321.5664,711.9292,317.7742,716.38,326.56" style="stroke:#E7E7E7;stroke-width:1.0;"/><text fill="#FFFFFF" font-family="sans-serif" font-size="13" lengthAdjust="spacing" textLength="237" x="715.64" y="278.1569">Proporciona seguimiento del proceso</text></g><!--link ATS to CS--><g id="link_ATS_CS"><path d="M808.4,202.5 C890.03,209.12 1011.92,225.35 1110.64,265.09 C1148.05,280.15 1180.9763,304.0205 1204.7963,323.5105 " fill="none" id="ATS-to-CS" style="stroke:#E7E7E7;stroke-width:1.0;"/><polygon fill="#E7E7E7" points="1209.44,327.31,1205.0075,318.5149,1205.5703,324.1437,1199.9415,324.7065,1209.44,327.31" style="stroke:#E7E7E7;stroke-width:1.0;"/><text fill="#FFFFFF" font-family="sans-serif" font-size="13" lengthAdjust="spacing" textLength="274" x="1145.64" y="278.1569">Comunicaci&#243;n del estado y actualizaciones</text></g><!--link ATS to PI--><g id="link_ATS_PI"><path d="M808.47,202.63 C858.43,209.81 918.12,226.61 957.64,265.09 C973.86,280.88 979.2929,300.5842 981.5929,319.4242 " fill="none" id="ATS-to-PI" style="stroke:#E7E7E7;stroke-width:1.0;"/><polygon fill="#E7E7E7" points="982.32,325.38,985.1999,315.9616,981.7141,320.4168,977.2588,316.9311,982.32,325.38" style="stroke:#E7E7E7;stroke-width:1.0;"/><text fill="#FFFFFF" font-family="sans-serif" font-size="13" lengthAdjust="spacing" textLength="131" x="970.64" y="278.1569">Programa entrevista</text></g><!--link ATS to RC--><g id="link_ATS_RC"><path d="M808.35,198.02 C975.17,199.52 1323.24,209.47 1428.64,265.09 C1453.18,278.04 1469.3503,298.4832 1481.4203,318.0532 " fill="none" id="ATS-to-RC" style="stroke:#E7E7E7;stroke-width:1.0;"/><polygon fill="#E7E7E7" points="1484.57,323.16,1483.25,313.4,1481.9453,318.9043,1476.4409,317.5996,1484.57,323.16" style="stroke:#E7E7E7;stroke-width:1.0;"/><text fill="#FFFFFF" font-family="sans-serif" font-size="13" lengthAdjust="spacing" textLength="248" x="1451.64" y="278.1569">Env&#237;a retroalimentaci&#243;n tras entrevista</text></g><!--link ATS to R--><g id="link_ATS_R"><path d="M777.09,158.43 C790.69,144.97 799.21,128.87 791.64,111.8 C784.06,94.67 774.3946,83.7763 760.3346,72.5863 " fill="none" id="ATS-to-R" style="stroke:#E7E7E7;stroke-width:1.0;"/><polygon fill="#E7E7E7" points="755.64,68.85,760.1911,77.5843,759.5522,71.9636,765.1729,71.3248,755.64,68.85" style="stroke:#E7E7E7;stroke-width:1.0;"/><text fill="#FFFFFF" font-family="sans-serif" font-size="13" lengthAdjust="spacing" textLength="224" x="795.64" y="124.8669">Facilita coordinaci&#243;n de entrevistas</text></g><!--link R to ATS--><g id="link_R_ATS"><path d="M679.69,54.63 C651.58,64.24 615.21,81.83 597.64,111.8 C584.26,134.62 596.2609,149.957 621.5209,163.487 " fill="none" id="R-to-ATS" style="stroke:#E7E7E7;stroke-width:1.0;"/><polygon fill="#E7E7E7" points="626.81,166.32,620.7651,158.5445,622.4024,163.9592,616.9877,165.5966,626.81,166.32" style="stroke:#E7E7E7;stroke-width:1.0;"/><text fill="#FFFFFF" font-family="sans-serif" font-size="13" lengthAdjust="spacing" textLength="184" x="598.64" y="124.8669">Actualiza estado del proceso</text></g><!--SRC=[PP5DRiCW44Rtd6AKVIxGHQK8kL9MjN0kCCAJ21M31JXIUgUkUeHShFpKXYHBmsE- -PvH1kjW9qZg9U1etGxGWs1OpZcQKOqOR3xcw_5XdhMIQ0AS7CelPIumt7oWAME7qy3OuacY9zXrvdh_iJ0IhCCMXvdhUAMuDMVb9fJg_ciI73UYEN-LQ57PWIwBcXIPaCPgw9sLvCkAGr-vU7vnsCpiJ71qLJwK_FxOva-BYPLMLaFdauyIFbHGK70MjPfY_3-D6Xuz2SuOX_t-FQc0DyWA46Jjpz950dXp_Qp0RGhOnWzzV12BpTP9PGs2Vv8n5nar82tmsevoExX1_ADBhFEDQHpvcjGVIr9M2BIfsm3HxEvUhGGNJJJF7Yf_dbCvKEPijyPn5nz9Cb8r8H7-Y81M8HcoRbIc6ghZu-AYCNvOMwr56pL_]--></g></svg>